<svg id="Calque_1" data-name="Calque 1" xmlns="http://www.w3.org/2000/svg" viewBox="0 0 5503.06 1032.71"><defs><style>.cls-1{fill:#399d7d;}.cls-2{fill:#fff;}</style></defs><path class="cls-1" d="M384.68,670.05c-5.61.37-9.26,5.61-14.61,6.8-4.74,1-11.64.51-16.92,1.15-27.64,3.37-59.11,7.9-85.78-3.75-25.5-11.15-47.44-35-64.59-56.18-21.91-27.05-45.88-52.9-49.92-89.45-5.8-52.43,26.84-100.09,58.64-138.34,13.73-16.51,27.77-32.15,42-48.36,12.1-13.81,18-15.95,28.18,1.83,6.6,11.52,11.2,25,21.25,34.45,19.28,18.06,27.12-14.37,22.39-29.57-5.79-18.59-24.82-32.08-22.06-52.51,1.59-11.71,7-21.5,14.77-30.3,12.9-14.61,29-26.28,43.84-38.8,0,0,20.06-16,24.59-24.5C392.17,224.3,425.79,274,425.79,274a274,274,0,0,1,36.74,86.68c6.77,29.92,7.3,61.26,11.05,91.63,3.08,25,8.9,53.83,2.9,78.83-4,16.71-13.78,31.57-20.86,47.07-5.91,12.93-11.23,26.48-18.28,38.82-7.83,13.7-19.8,25.31-31,36.27-5.82,5.67-16,10.62-19.87,17.67" transform="translate(-66.58 -56.46)"/><path class="cls-2" d="M300.4,674a59.67,59.67,0,0,1,1.5-10.85A91.54,91.54,0,0,1,305,652.76c2.44-6.78,5.23-13.4,7.05-20.38A107.89,107.89,0,0,0,315.15,611c.43-7.17.38-14.28.84-21.29a283.58,283.58,0,0,1,5.73-41.33c3-13.29,8.19-26,12-39.14.95-3.29,1.8-6.59,2.52-10s1.2-6.78,1.57-10.14c.74-6.73,1-13.33,1.41-19.75a126.77,126.77,0,0,1,2.39-18.64,162.75,162.75,0,0,1,4.9-17.76c1.92-5.79,4.06-11.45,6.23-17s4.37-11,6.63-16.37c4.5-10.71,8.85-21.28,11.57-32a108.54,108.54,0,0,0,2.79-15.92c.56-5.2.84-10.29,1-15.24.31-9.9.11-19.25,0-28-.27-17.48.52-32.77,1-45.35.31-6.29.41-11.91.69-16.8a95.53,95.53,0,0,1,1.4-12.42,57.26,57.26,0,0,1,1.95-7.58c.58-1.68.92-2.55.92-2.55l-.69,1.59c-.44,1.06-1.05,2.64-1.71,4.75a69,69,0,0,0-1.88,7.88c-.56,3.14-1,6.76-1.37,10.8s-.7,8.47-1.1,13.32-.87,10.09-1.29,15.7-.82,11.6-1.11,17.93-.42,13-.51,19.92-.27,14.09-.73,21.48a171.07,171.07,0,0,1-2.71,22.58,136.62,136.62,0,0,1-7.19,22.83c-3.06,7.66-6.61,15.4-10,23.45s-6.66,16.26-9.6,24.84a145.37,145.37,0,0,0-6.69,26.82c-1.27,9.3-1.36,18.58-2.11,27.63a109.24,109.24,0,0,1-1.83,13.36c-.93,4.41-2.11,8.83-3.41,13.23-2,6.81-4.33,13.62-6.4,20.57a158,158,0,0,0-5,21.25,261.34,261.34,0,0,0-3.63,42.54c0,7,.19,13.81-.16,20.5a92,92,0,0,1-2.91,19.47c-1.66,6.31-3.9,12.44-5.62,18.73A66.32,66.32,0,0,0,300.4,674Z" transform="translate(-66.58 -56.46)"/><path class="cls-2" d="M432.41,534.68A232.47,232.47,0,0,1,411,551.78l-10.8,7.84-2.66,2c-.87.61-1.67,1.2-2.55,1.75-1.72,1.13-3.54,2.11-5.35,3.07-7.36,3.74-15.15,6.52-22.37,10.13-.9.46-1.79.93-2.67,1.4s-1.72,1-2.57,1.45c-1.6.93-3.24,1.84-4.84,2.73-3.22,1.79-6.36,3.55-9.32,5.32A143.06,143.06,0,0,0,332.2,598a60.08,60.08,0,0,0-10.43,10.2,23.13,23.13,0,0,0-4.28,8.07,12.57,12.57,0,0,0-.38,2.28c0,.51-.05.77-.05.77l.13-.48a8.72,8.72,0,0,1,.41-1.36,17.32,17.32,0,0,1,2.69-4.8,38.77,38.77,0,0,1,6.23-6.25,87.39,87.39,0,0,1,9.59-6.69c3.69-2.26,7.81-4.53,12.25-6.82s9.19-4.59,14.15-7.11l3.72-2c1.18-.64,2.41-1.23,3.65-1.83,2.5-1.19,5.1-2.3,7.75-3.44a146.24,146.24,0,0,0,16.17-7.71,50,50,0,0,0,6-4c1-.76,1.83-1.48,2.71-2.21l2.61-2.19c3.47-2.93,6.89-5.89,10.17-8.91A122.25,122.25,0,0,0,432.41,534.68Z" transform="translate(-66.58 -56.46)"/><path class="cls-2" d="M425.6,448.68a225.27,225.27,0,0,1-20.36,13.91c-6.89,4.18-13.77,8.06-20.44,11.9s-13.09,7.67-19,11.61q-4.45,3-8.51,5.95c-2.71,2-5.29,4-7.71,5.93a104.55,104.55,0,0,0-12.4,11.8,59.42,59.42,0,0,0-7.61,10.74,24.73,24.73,0,0,0-1.17,2.28c-.34.73-.68,1.4-.94,2.05-.49,1.31-.94,2.4-1.21,3.32-.51,1.83-.77,2.81-.77,2.81l.81-1.66a45.29,45.29,0,0,1,2.55-4.51A66.72,66.72,0,0,1,341.14,511c5.8-5.12,13.27-10.32,21.55-15.68S380,484.57,389,478.89a211.29,211.29,0,0,0,20.19-14.12A109.45,109.45,0,0,0,425.6,448.68Z" transform="translate(-66.58 -56.46)"/><path class="cls-2" d="M426.45,353.32c-11.9,9-24.2,16.55-35.45,24.44-5.63,3.92-11,7.9-15.87,12a132.36,132.36,0,0,0-13.05,12.36,91.27,91.27,0,0,0-9.33,12.06,72.31,72.31,0,0,0-5.51,10.31c-.63,1.48-1.17,2.81-1.57,4s-.76,2.17-1,3L344,434l.77-1.47.92-1.77c.39-.68.83-1.46,1.34-2.33A89.51,89.51,0,0,1,356.73,415a142.42,142.42,0,0,1,17-16.3c6.68-5.54,14.21-11.08,21.71-16.8,5.81-4.43,11.61-9,16.92-13.77A116.37,116.37,0,0,0,426.45,353.32Z" transform="translate(-66.58 -56.46)"/><path class="cls-2" d="M228.34,502.17c3.59,9.44,4.94,19.09,7.59,28.52a62.5,62.5,0,0,0,13.44,25.73c6,7.27,12.76,13.31,18.94,19,3.07,2.82,6.11,5.63,9.05,8.27s5.75,5.2,8.4,7.7a141.05,141.05,0,0,1,13.59,14.38,62.47,62.47,0,0,1,8.18,12.92,40.88,40.88,0,0,1,3.11,9.57c.1.58.19,1.1.27,1.54l.14,1.14.12.93s0-.81.05-2.34a38.08,38.08,0,0,0-.67-6.59,46.36,46.36,0,0,0-3.11-9.79,69.2,69.2,0,0,0-6.59-11.5c-5.52-8-13.33-16.1-21.84-24.33l-3.2-3.11L272.52,571l-6.7-6.35a183.72,183.72,0,0,1-12.93-13.26c-1.54-1.81-3-3.66-4.42-5.55-.66-1-1.33-1.89-1.95-2.86s-1.24-2-1.76-3a94.9,94.9,0,0,1-5.69-12.77C235.84,518.48,232.94,509.51,228.34,502.17Z" transform="translate(-66.58 -56.46)"/><path class="cls-2" d="M260.46,395.14c2,8.54,3.74,17,5.53,25.33.89,4.16,1.8,8.29,2.75,12.35a74,74,0,0,0,3.86,12.12,73.17,73.17,0,0,0,13,20.3c2.51,2.85,5.13,5.47,7.64,7.9l7.25,7c4.63,4.48,8.78,8.65,12.3,12.52a128.11,128.11,0,0,1,8.65,10.47c1.15,1.52,2.06,2.94,2.91,4.17s1.47,2.32,2,3.21c1,1.8,1.57,2.76,1.57,2.76s-.23-.66-.68-1.91-1.18-3-2.22-5.29a82.47,82.47,0,0,0-4.23-7.84,115.38,115.38,0,0,0-6.52-9.53c-5.06-6.75-11.73-14-18.84-21.57a126.15,126.15,0,0,1-10-12,75.3,75.3,0,0,1-7.92-13.8c-.42-.94-.82-1.9-1.19-2.87s-.74-1.94-1.09-2.92c-.7-2-1.31-3.94-2-6-1.27-4.09-2.57-8.15-3.92-12.12A198.44,198.44,0,0,0,260.46,395.14Z" transform="translate(-66.58 -56.46)"/><path class="cls-1" d="M328.52,798.63c57.14,24.77,122.64,37.8,181.35,9.66,28.53-13.66,56.22-32,76.47-56.57,16.79-20.38,29-43.72,47-63.27,7.18-7.8,15.59-14.77,23.51-21.81,5.88-5.24,10.73-12.55,16.92-17.14-5.21-3.84-11.73-3.41-17.9-4.54-8.47-1.54-16.74-4.71-25.07-6.88-19.43-5.06-40.64-10.8-58.13-20.69-26.19-14.83-52.92-28.57-83.4-31C449.25,583.2,410.46,603,377,622.54c-18.72,11-34,22.65-39.44,44.28-4.87,19.28-6.7,39.31-9.81,58.89-3.86,24.37,6.37,48.27.75,72.92" transform="translate(-66.58 -56.46)"/><path class="cls-2" d="M648,655.55a71.77,71.77,0,0,1-15.26,3.26c-2.57.28-5.14.46-7.71.6s-5.14.22-7.71.45c-5.13.42-10.22,1.13-15.28,1.67-2.53.28-5,.48-7.56.64l-7.62.53c-20.25,1.54-40.32,4.32-59.07,10a243.86,243.86,0,0,0-27.11,9.59q-3.26,1.4-6.42,2.89c-2.11,1-4.19,2-6.3,3.2a95.08,95.08,0,0,0-11.47,7.83c-3.54,2.77-6.89,5.6-10.2,8.25a92.58,92.58,0,0,1-9.95,7.21c-6.81,4.08-14.39,6.65-21.59,9.7a90.81,90.81,0,0,0-10.44,5.08q-4.87,2.8-9.31,5.8a134.17,134.17,0,0,0-15.91,12.5c-4.65,4.34-8.61,8.67-12.43,12.52a114.42,114.42,0,0,1-11,10,66,66,0,0,1-10.13,6.48c-3.09,1.67-5.71,3.07-7.74,4.33a42.26,42.26,0,0,0-4.44,3.08c-.94.77-1.41,1.18-1.41,1.18l.95-.68c.62-.45,1.58-1.08,2.87-1.85s3-1.63,5-2.58l7-3.25a59.66,59.66,0,0,0,8.52-4.82,96.71,96.71,0,0,0,9-7.07c3.07-2.67,6.2-5.64,9.49-8.71s6.73-6.21,10.59-9.17a146.92,146.92,0,0,1,12.52-8.63q3.36-2.07,6.94-4c2.4-1.33,4.77-2.51,7.32-3.62,5.06-2.21,10.58-4,16.23-6.27a92.46,92.46,0,0,0,8.51-3.83,61.07,61.07,0,0,0,8.19-5.08c10.35-7.44,19.38-16.44,30.89-21.55a254.06,254.06,0,0,1,36.59-13.75C552,671.6,572.3,668.63,592,666.29l3.68-.43c1.25-.14,2.51-.3,3.74-.48,2.48-.36,4.92-.78,7.32-1.21,4.82-.86,9.5-1.75,14.13-2.33s9.42-1.13,14-2.11A66.26,66.26,0,0,0,648,655.55Z" transform="translate(-66.58 -56.46)"/><path class="cls-2" d="M472.88,799.74c-9.07-7.94-18-15.45-27.05-21.91a160.56,160.56,0,0,0-26.12-15.51,66.76,66.76,0,0,0-11.61-4.2,41,41,0,0,0-9.39-1.32c-1.3,0-2.47.06-3.47.11s-1.84.22-2.51.35l-2,.45,1.31.06a34.07,34.07,0,0,1,3.66.36,39.9,39.9,0,0,1,5.57,1.26,56.75,56.75,0,0,1,6.95,2.63,142.16,142.16,0,0,1,16.52,9.33c6,3.71,12.24,7.85,18.62,11.95C453.18,789.65,463.43,795.79,472.88,799.74Z" transform="translate(-66.58 -56.46)"/><path class="cls-2" d="M544.66,747.62c-6.78-1.15-13.43-2.41-19.8-4a148.7,148.7,0,0,1-18.15-5.7c-11.55-4.51-22.37-9.16-32.14-12.19A110.33,110.33,0,0,0,461,722.34a72.72,72.72,0,0,0-10.7-1.13,29.43,29.43,0,0,0-3.94.06,10,10,0,0,0-2.71.63,6.8,6.8,0,0,0-1.39.78l-.41.34.3-.13a5.17,5.17,0,0,1,.91-.31,9.7,9.7,0,0,1,3.8-.11c1.7.25,4,.76,6.47,1.36s5.29,1.43,8.29,2.46c6,2,12.9,4.92,20.31,8.14s15.41,6.7,23.84,9.46a88.86,88.86,0,0,0,20.06,4A97.56,97.56,0,0,0,544.66,747.62Z" transform="translate(-66.58 -56.46)"/><path class="cls-2" d="M581.69,696.61c-11-2.39-20.88-6-30.57-9-4.83-1.49-9.58-2.82-14.19-3.81a98.74,98.74,0,0,0-13.2-2c-8.25-.64-15.38,0-19.91,1.82a10.88,10.88,0,0,0-4.51,2.9,3.78,3.78,0,0,0-.44.61,1.85,1.85,0,0,0-.26.46l-.17.38a6.41,6.41,0,0,1,.74-.69,8,8,0,0,1,2.67-1.31c2.57-.82,6.75-1,11.76-.5a139.5,139.5,0,0,1,17.13,3c6.23,1.44,12.87,3.35,19.69,5a127.53,127.53,0,0,0,16,3A62.78,62.78,0,0,0,581.69,696.61Z" transform="translate(-66.58 -56.46)"/><path class="cls-2" d="M404.77,656.7a57.53,57.53,0,0,0-10.69,15.13,72.64,72.64,0,0,0-5.93,17.2,78.83,78.83,0,0,0-.13,32.21c1,4.61,2.18,8.66,3.15,12.27s1.77,6.76,2.28,9.42a60.41,60.41,0,0,1,.91,6.29c.1,1.49.16,2.29.16,2.29s.09-.5.25-1.44a39,39,0,0,0,.46-4.11,55.88,55.88,0,0,0,0-6.39c-.12-2.46-.38-5.21-.76-8.18s-.8-6.09-1.24-9.44-.65-6.75-.76-10.35a118,118,0,0,1,1.69-22.46A111.81,111.81,0,0,1,404.77,656.7Z" transform="translate(-66.58 -56.46)"/><path class="cls-2" d="M492.43,619.83a42.84,42.84,0,0,0-15.23,13.28A65.15,65.15,0,0,0,468.36,651,124.67,124.67,0,0,0,464,669c-1,5.75-1.73,11.1-2.53,16s-1.62,9.43-2.51,13.41c-.43,2-.89,3.83-1.33,5.57s-.82,3.31-1.24,4.73a24.37,24.37,0,0,1-2.71,6.45,12.54,12.54,0,0,1-1.16,1.57l-.46.52.36-.26a9.71,9.71,0,0,0,1-.81,18,18,0,0,0,3-3.66,45.32,45.32,0,0,0,3.19-6.3c1-2.38,2.25-5.23,3.33-8.33a167.88,167.88,0,0,0,5.8-21.68c1.65-8,3.23-16.39,5.58-24.51a86.32,86.32,0,0,1,7.15-17.81A58.52,58.52,0,0,1,492.43,619.83Z" transform="translate(-66.58 -56.46)"/><path class="cls-2" d="M560.06,642.57a32.37,32.37,0,0,0-10.73,2.8,43,43,0,0,0-9.09,5.79,82.09,82.09,0,0,0-12.6,13.66c-3.25,4.26-5.85,7.93-7.85,10.46-.95,1.32-1.79,2.28-2.32,3l-.83,1.1,2.81-1.64c.89-.53,1.9-1.27,3.1-2.08s2.47-1.83,3.84-2.95c2.75-2.24,5.75-5.06,8.84-8.11s6.25-6.34,9.48-9.46A111.82,111.82,0,0,1,560.06,642.57Z" transform="translate(-66.58 -56.46)"/><path class="cls-1" d="M690.85,338.25c21.88-5.93,39.81-23,52.41-41.25,5.21-7.57,21.59-52.1,4-46.65-19.08,5.89-37.64,30.08-45.15,47.37C697.41,308.44,691,326.46,690.85,338.25Z" transform="translate(-66.58 -56.46)"/><path class="cls-1" d="M654.29,367.67c6.8-5.26,11.25-17.33,14.94-24.89,7-14.43,8.57-29,7.53-44.77-1.61-24.43-15.25-40.37-31-57.92-6.85-7.65-11-11.15-16.89-.53-5.24,9.47-6.82,20.5-10,30.74-8.3,27.14-15.31,57.2,2.36,82.15C627,360.5,644.85,383.61,654.29,367.67Z" transform="translate(-66.58 -56.46)"/><path class="cls-1" d="M614.82,410.56c6.17-1.88,2.89-23.53,1.84-28.69-2.73-13.39-11.7-29.3-20.35-39.85-13.69-16.68-36.42-24.78-54.84-35.25-14.12,22.77,8.66,67.06,22.37,84.86,7.31,9.49,15.09,16.8,26.18,21.31C595.29,415.08,613.88,419.9,614.82,410.56Z" transform="translate(-66.58 -56.46)"/><path class="cls-1" d="M652,366.08c6.61-.82,13.18-5.26,19.6-7.55,11.65-4.15,24.6-2.33,36.53.57,12.59,3,24.73,9.72,34.88,17.7,4.75,3.74,17.65,13.46,19.55,19.18,2.71,8.18-7.15,8.29-13.91,10.41-9.81,3.08-19.39,6.86-29.3,9.72-22.32,6.43-60.06,11.45-75.68-10.74-4.91-7-5.56-17.28-1.44-24.71,1.62-2.92,4-4.26,5.76-6.87C650,370.7,647.06,367.89,652,366.08Z" transform="translate(-66.58 -56.46)"/><path class="cls-1" d="M590.4,446.5a16.63,16.63,0,0,1,2.75-5.44c11.7-15.14,38.71-18.1,55.73-16.51,13.49,1.27,40.24,7.37,47.26,21.53,6.81,13.75-24.72,24.79-34.8,28.68-19,7.32-44.71,8.18-64.45,3.72C576.34,473.83,586.47,459.81,590.4,446.5Z" transform="translate(-66.58 -56.46)"/><path class="cls-1" d="M579.43,479.9c8-16.61-.33-38-8.35-52.95-4.77-8.86-19.52-34.1-31.73-34.64-17.25-.77,1.13,56,5,64.33C547.52,463.33,569.56,501.79,579.43,479.9Z" transform="translate(-66.58 -56.46)"/><path class="cls-1" d="M699.25,318.88c.71-1.77.15-.43-.1,0-.12.2-.91,1.28-.29.48s-.25.26-.43.46q-.55.6-1.14,1.17c-1.41,1.36-2.93,2.61-4.41,3.89a86.67,86.67,0,0,0-8.41,9.14c-6.25,7.28-13.7,13.36-21.14,19.37s-15.08,11.87-22.42,18.05a207.85,207.85,0,0,0-19.64,18.94C608.88,404,598.06,419.19,590.43,436c-7.72,17-13.17,35-17.47,53.14-1.11,4.71-2.26,9.42-3.73,14-.33,1-.69,2.08-1.07,3.11q-.25.71-.54,1.41c-.1.27-.21.54-.32.81-.41,1,.31-.69,0,0-.86,1.95-1.76,3.87-2.75,5.76-4,7.7-9.16,14.76-14.3,21.75-1.29,1.75-2.58,3.49-3.85,5.24-1.82,2.5-.51,6.67,2.11,8,3.05,1.62,6.1.56,8.05-2.11,5.15-7.06,10.5-14,15-21.49a97.28,97.28,0,0,0,10.8-25.77c2.48-9.35,4.4-18.81,7.3-28,2.67-8.5,5.46-17,8.84-25.22a8.83,8.83,0,0,0,.57-1.39c-.24,1.11-.25.61-.09.22l.34-.78c.45-1.05.92-2.1,1.4-3.15q1.35-3,2.82-5.85,3.13-6.18,6.85-12,3.62-5.7,7.66-11.12l1.08-1.43.4-.54-.1.13c.71-1,1.48-1.88,2.22-2.81q2.19-2.72,4.46-5.34a209,209,0,0,1,19.1-19.36c7.13-6.33,14.7-12.14,22.15-18.09,3.81-3,7.61-6.1,11.33-9.25a130,130,0,0,0,10.56-9.61c3.15-3.34,5.93-7,9.05-10.36,2.6-2.79,5.83-4.92,8.4-7.75a19.71,19.71,0,0,0,3.84-6.11,5.93,5.93,0,0,0-.59-4.53,6,6,0,0,0-3.52-2.71c-3.41-.77-6,1.05-7.23,4.11Z" transform="translate(-66.58 -56.46)"/><path class="cls-1" d="M300.25,201.72c29.56-14.15,66.23-16.33,87.06-45.55,11.81-16.56,15.39-37.36,22.14-55.91,4.41-12.09,13.84-23.18,15.29-36.26.88-8,3.54-8-5.33-7.21-6.87.63-17.09,6.28-23.82,8.39-14.19,4.46-29.09,9-42.7,15.17-24,10.93-34,30.63-43.93,53.89-8.74,20.41-11.79,44.13-10.94,66.36" transform="translate(-66.58 -56.46)"/><path class="cls-1" d="M97.17,452.06a35.6,35.6,0,0,1-6.1-3.66l2.27,1.75A23.07,23.07,0,0,1,89.15,446l1.75,2.27a18.08,18.08,0,0,1-2.22-3.8l1.13,2.67a17.3,17.3,0,0,1-1.09-4l.4,3a19.5,19.5,0,0,1,0-5.12l-.4,3a27.34,27.34,0,0,1,1.82-6.44l-1.12,2.67a43.79,43.79,0,0,1,5.75-9.61l-1.75,2.26a65.71,65.71,0,0,1,11.7-11.57L102.88,423c4-3,8.43-5.22,12.5-8.1,5.3-3.74,10.44-8.17,13.54-14a29.89,29.89,0,0,0,3.63-15.49,58.13,58.13,0,0,0-2.47-13.2A87.8,87.8,0,0,1,127,359.88l.4,3a29.7,29.7,0,0,1-.08-7.71l-.4,3a26.74,26.74,0,0,1,1.79-6.55l-1.13,2.68a30,30,0,0,1,3.73-6.42l-1.75,2.26a23,23,0,0,1,3.82-3.81L131.13,348a27,27,0,0,1,5.75-3.32l-2.67,1.13a86,86,0,0,1,10.69-3.35,58.61,58.61,0,0,0,12.8-4.86,33.57,33.57,0,0,0,12.6-12.27c3-5.21,4.17-11,4.49-17,.26-4.83-.11-9.67.49-14.49l-.4,3a32.32,32.32,0,0,1,2.18-8.08l-1.13,2.67a35.19,35.19,0,0,1,4.49-7.74L178.67,286a35.21,35.21,0,0,1,6.16-6.1l-2.27,1.75c6.55-5,14.38-7.9,21.86-11.22,8.35-3.7,16.65-8.43,22.58-15.54a54.33,54.33,0,0,0,10.39-19.29,11.19,11.19,0,1,0-21.58-6q-.74,2.42-1.71,4.76l1.13-2.67a40.14,40.14,0,0,1-4.93,8.51l1.75-2.27a38.9,38.9,0,0,1-6.83,6.8l2.27-1.75c-8.09,6.23-18,9.24-27,13.7a58,58,0,0,0-14.36,9.81,46.12,46.12,0,0,0-11.38,18.21,47.34,47.34,0,0,0-2.22,14.86,110,110,0,0,1-.4,11.91l.4-3a24.53,24.53,0,0,1-1.62,6.07l1.13-2.67a21.66,21.66,0,0,1-2.46,4.21l1.75-2.27a23.69,23.69,0,0,1-4,4.1l2.27-1.75a26.68,26.68,0,0,1-6,3.42l2.67-1.12c-5.16,2.13-10.71,3-15.95,4.93a39.71,39.71,0,0,0-9.83,4.76,36.48,36.48,0,0,0-9.64,9.94,38.16,38.16,0,0,0-6.08,19.15,50.17,50.17,0,0,0,2.18,15.52c1.22,4.44,2.79,8.82,3.42,13.4l-.4-3a23.46,23.46,0,0,1,.08,5.92l.4-3a18.79,18.79,0,0,1-1.24,4.59l1.13-2.68a21,21,0,0,1-2.74,4.61l1.75-2.26a33.65,33.65,0,0,1-5.7,5.55l2.27-1.75a86,86,0,0,1-8.68,5.59,77.53,77.53,0,0,0-8,5.69,65.86,65.86,0,0,0-11.23,11c-4.25,5.37-7.82,10.9-9.91,17.49a32.75,32.75,0,0,0-1.49,9.52,25.78,25.78,0,0,0,1.51,9.17A30.75,30.75,0,0,0,75.19,464a40.08,40.08,0,0,0,10.68,7.41,11.94,11.94,0,0,0,8.63,1.13,11.2,11.2,0,0,0,7.81-13.76c-.86-2.65-2.54-5.44-5.14-6.69Z" transform="translate(-66.58 -56.46)"/><path class="cls-1" d="M253.81,132c-12.17,9.76-29.51,40.83-.47,39.93,17.83-.55,21-43.43,5.22-42.78" transform="translate(-66.58 -56.46)"/><path class="cls-1" d="M362.54,1003.23c-12.17,9.76-29.51,40.83-.47,39.93,17.83-.55,21.05-43.43,5.22-42.78" transform="translate(-66.58 -56.46)"/><path class="cls-1" d="M529.82,989.55c-8.18-22.75-20.27-46.24-22.87-70-2.32-21.13,11.61-40,28.73-48.52,6.2-3.1,16.51-8.52,25.37-5.3,9.11,3.3,11.5,13,14.42,20.1,10.2,24.91,7.28,47.44-3.92,66.51-4,6.79-27.28,43.76-40.14,38.27" transform="translate(-66.58 -56.46)"/><path class="cls-1" d="M452.87,1045.71c.32-.7.91-1-.32.22.29-.28.54-.61.83-.89s.7-.63,1.06-.94.86-.53-.47.36c.27-.18.53-.4.79-.59,2-1.45,4.14-2.73,6.27-4,4.53-2.7,8.87-5.61,13.29-8.48a216.31,216.31,0,0,1,18.79-10.84c6.3-3.23,12.78-6,19.15-9.13,24.42-11.8,47.8-25.86,68.51-43.45a369,369,0,0,0,28.75-27.46,331.57,331.57,0,0,0,26-30.9,268,268,0,0,0,21.63-34.26c6.7-12.72,12.36-25.94,18.34-39,3-6.52,6.06-13,9.38-19.36s7.11-12.42,11-18.46a166,166,0,0,0,10.56-18.16c2.73-5.76,5-11.73,8-17.38.74-1.41,1.52-2.8,2.36-4.15.41-.68.84-1.34,1.29-2,.24-.35,1.63-2.2.74-1.07a6.5,6.5,0,0,0,1.76-4.24,6.07,6.07,0,0,0-1.76-4.24c-2.15-2-6.42-2.64-8.48,0C702,757.92,698.39,771,691.62,782.53c-3.68,6.27-7.77,12.28-11.55,18.49s-7,12.56-10.17,19.05c-6.26,12.94-11.83,26.2-18.08,39.15a277.09,277.09,0,0,1-20.68,35.87q-2.79,4.1-5.73,8.07c-1,1.32-2,2.64-2.95,3.94l-.6.78c.86-1.12-.14.18-.27.34-.5.65-1,1.29-1.52,1.93q-6.09,7.7-12.68,15c-8.9,9.89-18.37,19.25-28.18,28.24q-7.35,6.72-15.22,12.84c-1.31,1,1-.73-.36.28l-.79.6c-.66.5-1.32,1-2,1.49q-2,1.49-4,2.94-4.05,2.9-8.22,5.66a346.78,346.78,0,0,1-35,20.21c-12.66,6.41-25.75,11.87-38,19.09-5.35,3.16-10.34,6.84-15.64,10.06-4.14,2.51-8.44,4.79-12.29,7.74-1.91,1.45-4.13,3.11-5.15,5.36-1.29,2.85-.91,6.59,2.15,8.21,2.63,1.38,6.83.9,8.21-2.16Z" transform="translate(-66.58 -56.46)"/><path class="cls-1" d="M457.72,1040.8c22.65,14.55,44.72,32.38,70.53,43,23,9.44,49.22,5.52,65-4.61,5.73-3.66,15.56-9.65,15.15-17.66C608,1053.3,598,1048,591,1043.12a117.57,117.57,0,0,0-76.3-21c-9.08.61-59.14,5.21-57.62,17.12" transform="translate(-66.58 -56.46)"/><path class="cls-1" d="M523,1005.76c24.5,9.83,49.38,23.18,75.65,28.2,23.37,4.46,46-5.67,57.55-19.81,4.17-5.11,11.41-13.59,8.83-21.78-2.66-8.42-13.21-11.64-20.84-15-26.68-11.85-52.2-11.85-74.81-4.15-8,2.74-52,19.07-47.38,31" transform="translate(-66.58 -56.46)"/><path class="cls-1" d="M597.23,954.93c19.36,3.6,39.73,10,59.33,9.37,17.44-.53,31.3-12.7,36.45-26.12,1.87-4.86,5.19-13,1.64-19.11-3.64-6.31-11.77-7-17.87-8.43-21.33-4.84-39.34-.33-53.68,9.86-5.1,3.63-32.72,24.55-26.91,33.38" transform="translate(-66.58 -56.46)"/><path class="cls-1" d="M646.09,893.46c16.19.51,33.65,3.33,49.35.1,14-2.87,23.13-15.52,25.07-28.09.7-4.55,2-12.18-1.82-17.12s-10.65-4.6-15.78-5c-18-1.34-31.76,5.13-41.63,16.11-3.52,3.9-22.33,26.2-16.19,33.2" transform="translate(-66.58 -56.46)"/><path class="cls-1" d="M452.7,1030.64c-8.19-22.74-20.27-46.23-22.87-70-2.32-21.14,11.6-40,28.73-48.53,6.2-3.09,16.51-8.51,25.37-5.29,9.11,3.3,11.5,13,14.41,20.1,10.2,24.91,7.28,47.43-3.91,66.51-4,6.79-27.28,43.75-40.14,38.27" transform="translate(-66.58 -56.46)"/><path class="cls-1" d="M610.84,923.92c-10-15.41-23-31.26-29.22-47.5-5.52-14.44,1.08-27.67,11.87-33.91,3.9-2.26,10.34-6.2,17.31-4.19,7.17,2.07,10.65,8.66,14.05,13.47,11.88,16.86,13.87,32.37,9.28,45.7-1.63,4.74-11.69,30.61-22,27.13" transform="translate(-66.58 -56.46)"/><path class="cls-1" d="M647.66,870.07c-7.89-12.12-18.1-24.57-23-37.34A21.31,21.31,0,0,1,634,806.08c3.07-1.78,8.13-4.88,13.61-3.3s8.37,6.81,11,10.59c9.34,13.25,10.91,25.45,7.3,35.92-1.29,3.73-9.19,24.07-17.26,21.33" transform="translate(-66.58 -56.46)"/><path class="cls-1" d="M674,818.56c-7.29-10.55-16.66-21.44-21.27-32.47-4.11-9.8.32-18.54,7.8-22.5,2.71-1.43,7.17-4,12.11-2.45s7.61,6,10.08,9.33c8.61,11.55,10.26,22,7.24,30.84-1.08,3.15-7.73,20.29-15,17.75" transform="translate(-66.58 -56.46)"/><path class="cls-1" d="M679.37,819.78c11.8,1.35,24.8,4.39,35.82,3.11,9.81-1.14,15-9.38,15-18,0-3.12.1-8.35-3.27-12s-8.25-3.86-12-4.44c-13.2-2-22.46,1.61-28.37,8.64-2.11,2.51-13.22,16.87-8,22.12" transform="translate(-66.58 -56.46)"/><path class="cls-1" d="M699.81,773.49c-2.12-11.27-6.17-23.68-5.33-34.19.74-9.34,9.62-14.28,19.2-14.22,3.46,0,9.25-.06,13.51,3.17s4.72,7.89,5.56,11.49c3,12.6-.6,21.42-8.1,27-2.67,2-18,12.54-24.12,7.51" transform="translate(-66.58 -56.46)"/><path class="cls-1" d="M193,925.33c-9.39-22-23.29-43.28-34.17-64.84-20.41-40.4-46.44-74.26-54.23-120.3-5.07-30-3.42-62-5.71-92.31-1.06-14,3.33-26.52,7.47-39.74,2.85-9.12,3.11-22.69,7.36-30.57,9.48,3.34,18.49,18.29,24.6,26.15,13.21,17,24.56,36.07,36.28,54.12,17.52,27,38.06,53.21,52.79,81.94,28.2,55,37.79,109.1,5.45,163.64-6,10.11-23.83,36-38.55,22.39" transform="translate(-66.58 -56.46)"/><path class="cls-2" d="M141.11,676.91C152.88,705,166,732.4,176.5,758.75c5.25,13.16,9.86,26,13.53,38.47a308.11,308.11,0,0,1,8.3,35.52c2,11.28,4.22,21.47,6,30.54s3.3,17,4.22,23.57.89,11.89.1,15.48a18.21,18.21,0,0,1-1.34,4l-.74,1.3s.19-.27.54-.8a6.61,6.61,0,0,0,.59-1c.11-.2.23-.43.35-.67l.33-.78a29.62,29.62,0,0,0,1.81-10,107.91,107.91,0,0,0-1-15.5c-.67-5.92-1.63-12.58-2.79-19.81s-2.48-15-3.72-23.29c-.33-2.07-.57-4.14-.93-6.29s-.7-4.31-1-6.5-.8-4.39-1.25-6.61-.9-4.47-1.42-6.72c-1.14-4.47-2.15-9.06-3.54-13.6-.68-2.28-1.29-4.59-2-6.88s-1.49-4.58-2.24-6.88c-3.13-9.18-6.58-18.41-10.46-27.45C168,726.72,153.41,699.9,141.11,676.91Z" transform="translate(-66.58 -56.46)"/><path class="cls-1" d="M327,852.81c-37.48,15.11-92.16,110.83-17.75,108.62,57.93-1.73,114.27-110.58,27.95-108.62" transform="translate(-66.58 -56.46)"/><path class="cls-1" d="M664.47,567.48c27.67-17.56,49-47.49,84.78-49.66,20.31-1.23,39.83,6.76,59.14,10.87,12.59,2.68,27,.56,38.86,6.27,7.21,3.47,8.67,1.25,3.28,8.34-4.18,5.48-14.38,11.16-19.74,15.75-11.3,9.66-23,19.9-35.51,28.16-22,14.56-44,12.56-69,8.67-21.93-3.41-43.67-13.41-62.07-25.91" transform="translate(-66.58 -56.46)"/><path class="cls-1" d="M5251.61,670.05c5.61.37,9.26,5.61,14.61,6.8,4.75,1,11.64.51,16.92,1.15,27.64,3.37,59.11,7.9,85.78-3.75,25.5-11.15,47.44-35,64.59-56.18,21.91-27.05,45.89-52.9,49.93-89.45,5.79-52.43-26.85-100.09-58.64-138.34-13.73-16.51-27.78-32.15-42-48.36-12.1-13.81-18-15.95-28.18,1.83-6.6,11.52-11.2,25-21.25,34.45-19.28,18.06-27.11-14.37-22.38-29.57,5.78-18.59,24.81-32.08,22.05-52.51-1.58-11.71-7-21.5-14.77-30.3-12.9-14.61-29-26.28-43.83-38.8,0,0-20.06-16-24.59-24.5C5244.13,224.3,5210.5,274,5210.5,274a274,274,0,0,0-36.73,86.68c-6.77,29.92-7.31,61.26-11.05,91.63-3.09,25-8.9,53.83-2.9,78.83,4,16.71,13.78,31.57,20.86,47.07,5.9,12.93,11.22,26.48,18.28,38.82,7.83,13.7,19.79,25.31,31,36.27,5.82,5.67,16,10.62,19.88,17.67" transform="translate(-66.58 -56.46)"/><path class="cls-2" d="M5333.56,674a66.78,66.78,0,0,0-2.91-21.06c-1.93-6.91-4.27-13.75-5.62-20.76a111.07,111.07,0,0,1-1.78-21.21c0-7.09.38-14.21.24-21.35s-.54-14.23-1.26-21.27c-.35-3.52-.78-7-1.27-10.5s-1-6.93-1.68-10.43c-2.74-13.91-7.67-26.86-11.1-39.69-.87-3.21-1.64-6.43-2.27-9.6s-1.05-6.37-1.38-9.6c-.64-6.45-.83-13-1.24-19.52-.21-3.27-.48-6.55-.87-9.81s-.93-6.53-1.62-9.71a160.59,160.59,0,0,0-5.18-18.43c-2-5.93-4.25-11.67-6.52-17.26s-4.59-11.1-6.94-16.41c-4.71-10.64-9.17-20.83-12.06-31a105.47,105.47,0,0,1-3.12-15.18c-.72-5-1.17-10-1.51-14.9-.67-9.75-.85-19.07-1.1-27.84-.52-17.6-2.13-32.83-3.41-45.36-.68-6.25-1.14-11.87-1.74-16.71a88.59,88.59,0,0,0-2.22-12.14,53.29,53.29,0,0,0-2.43-7.17c-.68-1.56-1.07-2.35-1.07-2.35l.61,1.53c.4,1,.93,2.54,1.51,4.57a89,89,0,0,1,2.65,18.2c.46,8,1,17.82,1.69,29,.29,5.6.56,11.56.72,17.84s.15,12.85.11,19.8,0,14.18.35,21.71a171.59,171.59,0,0,0,2.45,23.35,140,140,0,0,0,7.14,23.84c3.05,7.87,6.52,15.68,9.79,23.65s6.46,16.19,9.26,24.53a141.1,141.1,0,0,1,6.3,25.71c1.19,8.8,1.27,18,2.05,27.32a112.73,112.73,0,0,0,2,14.12c1,4.66,2.24,9.21,3.6,13.71,4.23,13.92,9.33,27.21,11.58,41a271.62,271.62,0,0,1,4.27,41.62c.11,6.88.12,13.87.68,20.75a93.61,93.61,0,0,0,3.67,20.23c1.93,6.46,4.41,12.54,6.32,18.57A64.92,64.92,0,0,1,5333.56,674Z" transform="translate(-66.58 -56.46)"/><path class="cls-2" d="M5205.68,533.2c4.84,7.73,11.08,14.67,17.53,21,3.23,3.18,6.54,6.21,9.84,9.15l2.47,2.19c.86.72,1.76,1.5,2.68,2.17a57.72,57.72,0,0,0,5.66,3.75c7.72,4.43,15.57,7.3,22.47,10.56l2.55,1.24,2.49,1.29c1.74.92,3.44,1.75,5.11,2.56l9.62,4.61c12.27,5.85,22.2,11.36,28.15,16.73a26.44,26.44,0,0,1,6,7.26,16.1,16.1,0,0,1,1,2.4c.19.58.29.87.29.87l-.09-.57a13.26,13.26,0,0,0-.34-1.67,19.8,19.8,0,0,0-2.62-5.78,40.66,40.66,0,0,0-6.25-7.32,84.41,84.41,0,0,0-9.59-7.67c-3.67-2.56-7.78-5.12-12.19-7.65s-9.15-5.07-13.94-7.67l-3.6-2c-1.27-.72-2.56-1.39-3.86-2-2.61-1.3-5.27-2.48-7.93-3.66-5.32-2.34-10.68-4.58-15.58-7.35a50.23,50.23,0,0,1-5.43-3.48c-.83-.6-1.75-1.33-2.64-2L5234.8,558c-3.57-2.78-7.09-5.52-10.51-8.25A202.93,202.93,0,0,1,5205.68,533.2Z" transform="translate(-66.58 -56.46)"/><path class="cls-2" d="M5212.38,447.07a103.68,103.68,0,0,0,16.8,18.09,188.14,188.14,0,0,0,19.28,14.25c6.47,4.24,12.82,8.11,18.76,11.83s11.57,7.3,16.63,10.66a159.22,159.22,0,0,1,13.39,9.84,75,75,0,0,1,9.21,9,25,25,0,0,1,1.63,2c.49.64,1,1.23,1.39,1.81.78,1.17,1.51,2.15,2,3l1.56,2.63-.68-1.83a43.65,43.65,0,0,0-2.25-5,65.34,65.34,0,0,0-11.87-15.59,155.7,155.7,0,0,0-21.37-17.25c-8.18-5.77-17.32-11.31-26.36-16.77-7-4.26-14-8.49-20.4-12.95A193.56,193.56,0,0,1,5212.38,447.07Z" transform="translate(-66.58 -56.46)"/><path class="cls-2" d="M5211.54,351.72a101.05,101.05,0,0,0,6.72,8.75c2.41,2.77,4.94,5.43,7.54,8,5.22,5.07,10.69,9.66,16,13.94s10.59,8.27,15.48,12.1,9.43,7.51,13.47,11.07a146.32,146.32,0,0,1,10.58,10.26,106,106,0,0,1,7.36,8.83c1,1.29,1.81,2.45,2.5,3.5s1.33,1.92,1.78,2.67c.94,1.48,1.45,2.26,1.45,2.26s-.22-.55-.61-1.59c-.21-.52-.45-1.16-.75-1.92s-.7-1.59-1.13-2.55a81.29,81.29,0,0,0-8.9-14.88,120,120,0,0,0-16.72-17.91c-6.68-6-14.24-11.71-21.85-17.28-5.89-4.32-11.81-8.54-17.39-12.74S5216.27,355.8,5211.54,351.72Z" transform="translate(-66.58 -56.46)"/><path class="cls-2" d="M5410,503.26a78.31,78.31,0,0,0-7,12.91c-2,4.5-3.74,9.07-5.65,13.46a83.46,83.46,0,0,1-6.41,12.42,80.64,80.64,0,0,1-8.38,10.58c-6,6.6-12.64,12.44-18.76,18.3-3.08,3-6,5.82-8.78,8.64s-5.49,5.61-8,8.38a107.3,107.3,0,0,0-12.34,16.23,54.19,54.19,0,0,0-6.29,14.36,35.05,35.05,0,0,0-1.22,9.82c0,.56,0,1.06.06,1.49s.08.79.11,1.08c.06.57.1.87.1.87s0-.76.13-2.18a37.55,37.55,0,0,1,1.1-6,45.34,45.34,0,0,1,3.52-8.86,69.19,69.19,0,0,1,6.85-10.43,128.78,128.78,0,0,1,10-11.13c3.77-3.79,7.92-7.63,12.27-11.63s8.83-8.16,13.4-12.38a153.55,153.55,0,0,0,13.37-13.8c1.61-2,3.16-4,4.62-6,.7-1.07,1.43-2.15,2.09-3.26s1.3-2.21,1.84-3.37a86.25,86.25,0,0,0,5.36-13.85C5404.73,519.64,5406.65,510.85,5410,503.26Z" transform="translate(-66.58 -56.46)"/><path class="cls-2" d="M5378,396a183,183,0,0,0-10.75,23.59c-1.53,4-2.95,8-4.31,11.93a95.19,95.19,0,0,1-4.51,11.07A89.52,89.52,0,0,1,5346,461.25c-2.33,2.78-4.7,5.38-7.06,8s-4.63,5.11-6.75,7.59a149.14,149.14,0,0,0-10.9,14.18,89.18,89.18,0,0,0-6.82,12c-.83,1.71-1.42,3.31-2,4.67s-.9,2.56-1.2,3.52l-.81,3,.84-1.77c.53-1.15,1.4-2.81,2.58-4.87a84.45,84.45,0,0,1,4.65-7.19c1.94-2.69,4.24-5.64,6.92-8.75,5.32-6.24,12.15-13,19.56-20.35a113.8,113.8,0,0,0,10.81-12.43,72.71,72.71,0,0,0,8.55-15c.44-1,.86-2.07,1.23-3.13s.75-2.11,1.1-3.17c.69-2.12,1.26-4.28,1.81-6.33,1.08-4.13,2.15-8.24,3.21-12.26C5373.85,410.8,5375.91,403.08,5378,396Z" transform="translate(-66.58 -56.46)"/><path class="cls-1" d="M5307.77,798.63c-57.14,24.77-122.64,37.8-181.35,9.66-28.52-13.66-56.21-32-76.46-56.57-16.79-20.38-29-43.72-47-63.27-7.19-7.8-15.6-14.77-23.51-21.81-5.88-5.24-10.73-12.55-16.93-17.14,5.21-3.84,11.74-3.41,17.9-4.54,8.47-1.54,16.74-4.71,25.08-6.88,19.42-5.06,40.64-10.8,58.12-20.69,26.2-14.83,52.92-28.57,83.4-31,40.05-3.19,78.85,16.6,112.28,36.15,18.72,11,34,22.65,39.44,44.28,4.88,19.28,6.71,39.31,9.81,58.89,3.86,24.37-6.37,48.27-.75,72.92" transform="translate(-66.58 -56.46)"/><path class="cls-2" d="M4989.18,653.39a66.23,66.23,0,0,0,14.49,4.79c2.51.54,5.05,1,7.59,1.36s5.1.7,7.61,1.15c5.05.87,10,2,15.09,2.93,2.51.47,5.07.87,7.6,1.21l7.54,1c20,2.84,39.58,6.39,57.71,12.34a279.84,279.84,0,0,1,26.36,9.75q3.15,1.37,6.21,2.82c2.05,1,4.07,2,5.92,3a93.26,93.26,0,0,1,10.78,7.26c3.46,2.65,6.82,5.41,10.27,8.07a93.05,93.05,0,0,0,10.77,7.43c7.65,4.31,15.52,6.64,22.63,9.35a90.83,90.83,0,0,1,10.14,4.41q4.86,2.52,9.33,5.21a140.11,140.11,0,0,1,16.2,11.3c4.79,3.93,9.06,8,13.17,11.57a107.91,107.91,0,0,0,11.82,9.21,61.71,61.71,0,0,0,10.65,5.56c3.21,1.38,6,2.52,8.17,3.6a46.37,46.37,0,0,1,4.94,2.71c1.08.69,1.62,1.08,1.62,1.08l-1-.78c-.65-.51-1.64-1.22-3-2.08s-3-1.83-5-2.88l-6.86-3.5a58.21,58.21,0,0,1-7.95-4.87,92,92,0,0,1-8.47-7.09c-2.92-2.7-5.92-5.72-9.14-8.9a142.2,142.2,0,0,0-10.63-9.73,144.34,144.34,0,0,0-12.71-9.24q-3.42-2.22-7.07-4.32a86.19,86.19,0,0,0-7.66-4c-10.62-4.88-22.24-7.82-31.64-15.11-4.87-3.6-9.62-7.72-14.74-11.72-2.56-2-5.23-4-8.05-5.79a75.23,75.23,0,0,0-8.86-4.88,242.25,242.25,0,0,0-37.52-14.07c-20.07-5.9-40.81-8.56-60.67-10.31l-3.72-.31c-1.21-.1-2.41-.22-3.61-.35-2.41-.27-4.82-.59-7.22-.92-4.81-.67-9.62-1.38-14.44-1.75s-9.35-.65-13.82-1.35A67.4,67.4,0,0,1,4989.18,653.39Z" transform="translate(-66.58 -56.46)"/><path class="cls-2" d="M5162.26,797.72c11.39-3.73,21.95-9.4,31.38-15.06s17.9-11.35,25.27-16a116.83,116.83,0,0,1,10.23-5.93,57,57,0,0,1,8.51-3.51c1.23-.42,2.36-.66,3.35-.94s1.86-.39,2.57-.51l2.18-.33-1.39-.14a31.15,31.15,0,0,0-4-.13,39.52,39.52,0,0,0-6.17.64,54.13,54.13,0,0,0-7.76,2.07,110.27,110.27,0,0,0-17.83,8.49c-6.26,3.51-12.72,7.6-19,11.86C5179.85,784.81,5170.4,791.7,5162.26,797.72Z" transform="translate(-66.58 -56.46)"/><path class="cls-2" d="M5091.65,745.29a88.16,88.16,0,0,0,20.23,1.49,78.35,78.35,0,0,0,19.59-3.4,170.09,170.09,0,0,0,17.17-6.46c5.32-2.29,10.25-4.58,14.82-6.63a168.17,168.17,0,0,1,22.58-8.71,37.37,37.37,0,0,1,3.86-1,12,12,0,0,1,3.06-.2,9.89,9.89,0,0,1,2,.39l.68.25-.39-.24a7.07,7.07,0,0,0-1.21-.6,12.12,12.12,0,0,0-4.84-.73,69.44,69.44,0,0,0-7,.71c-2.66.4-5.64,1-8.84,1.79a182.9,182.9,0,0,0-21.25,7.06c-7.59,2.92-15.55,6.25-23.57,9.06a122.36,122.36,0,0,1-18.77,4.83C5103.54,744,5097.39,744.71,5091.65,745.29Z" transform="translate(-66.58 -56.46)"/><path class="cls-2" d="M5054.62,694.28a58.51,58.51,0,0,0,16.32,1.2,102.55,102.55,0,0,0,15.69-2.26c5-1.07,9.7-2.31,14.14-3.45s8.62-2.18,12.52-3.08c7.77-1.77,14.35-2.91,19.11-2.64a13.16,13.16,0,0,1,5.53,1.33,5.41,5.41,0,0,1,.81.49,3.79,3.79,0,0,1,.57.44l.45.39-.21-.31a6.73,6.73,0,0,0-.69-.86,10.4,10.4,0,0,0-3.31-2.31c-3.08-1.45-7.69-2.18-13.07-2.18a102.1,102.1,0,0,0-18.11,1.81c-6.55,1.18-13.35,3-20,4.82-5.19,1.42-10.32,2.82-15.31,4A144.39,144.39,0,0,1,5054.62,694.28Z" transform="translate(-66.58 -56.46)"/><path class="cls-2" d="M5233.45,655.39a135.76,135.76,0,0,1,9,34.63,149.4,149.4,0,0,1,1,30.51c-.36,4.51-.83,8.75-1,12.54a69,69,0,0,0,.05,9.84,38.76,38.76,0,0,0,1,6.19c.37,1.38.61,2.09.61,2.09s0-.47-.05-1.37,0-2.2.06-3.87a88.73,88.73,0,0,1,2.15-13.8c.62-2.87,1.34-6,2-9.39a90.73,90.73,0,0,0-.08-34.72,82.18,82.18,0,0,0-5.57-17.89A61.13,61.13,0,0,0,5233.45,655.39Z" transform="translate(-66.58 -56.46)"/><path class="cls-2" d="M5145.27,618a62.71,62.71,0,0,1,11.08,16.75,104,104,0,0,1,6,17.93c1.51,6,2.7,11.85,3.86,17.49s2.36,11,3.78,16a107.27,107.27,0,0,0,4.66,13.2c.82,1.91,1.68,3.67,2.5,5.26s1.57,3.06,2.33,4.34a20.13,20.13,0,0,0,4.22,5.29,9.34,9.34,0,0,0,1.37,1l.49.27-.25-.25a9,9,0,0,1-.71-.74,15.5,15.5,0,0,1-2.16-3.38,44.36,44.36,0,0,1-2.34-6.13c-.83-2.53-1.7-5.25-2.51-8.34-1.65-6.15-3-13.47-4.36-21.44s-2.8-16.67-5.46-25.19a70.43,70.43,0,0,0-8.74-18.7A46.06,46.06,0,0,0,5145.27,618Z" transform="translate(-66.58 -56.46)"/><path class="cls-2" d="M5077.13,640.42c2.91,2.59,5.56,5.07,8,7.57s4.74,5,7,7.39a146.75,146.75,0,0,0,13,12.82,53.38,53.38,0,0,0,11.14,7.37,30.42,30.42,0,0,0,3.46,1.46c.81.3,1.25.44,1.25.44l-2.28-2.12c-.73-.67-1.55-1.56-2.53-2.52s-2-2.13-3.16-3.38c-2.28-2.52-4.83-5.58-7.68-8.85a109.38,109.38,0,0,0-9.58-10,49.73,49.73,0,0,0-9-6.51A35.45,35.45,0,0,0,5077.13,640.42Z" transform="translate(-66.58 -56.46)"/><path class="cls-1" d="M4945.44,338.25c-21.87-5.93-39.81-23-52.4-41.25-5.22-7.57-21.6-52.1-4-46.65,19.09,5.89,37.64,30.08,45.15,47.37C4938.88,308.44,4945.28,326.46,4945.44,338.25Z" transform="translate(-66.58 -56.46)"/><path class="cls-1" d="M4982,367.67c-6.8-5.26-11.25-17.33-14.93-24.89-7-14.43-8.58-29-7.54-44.77,1.61-24.43,15.25-40.37,31-57.92,6.84-7.65,11-11.15,16.88-.53,5.24,9.47,6.83,20.5,10,30.74,8.31,27.14,15.31,57.2-2.35,82.15C5009.27,360.5,4991.44,383.61,4982,367.67Z" transform="translate(-66.58 -56.46)"/><path class="cls-1" d="M5021.48,410.56c-6.17-1.88-2.89-23.53-1.84-28.69,2.72-13.39,11.7-29.3,20.34-39.85,13.69-16.68,36.43-24.78,54.85-35.25,14.12,22.77-8.66,67.06-22.37,84.86-7.32,9.49-15.09,16.8-26.18,21.31C5041,415.08,5022.42,419.9,5021.48,410.56Z" transform="translate(-66.58 -56.46)"/><path class="cls-1" d="M4984.3,366.08c-6.62-.82-13.19-5.26-19.61-7.55-11.65-4.15-24.6-2.33-36.52.57-12.6,3-24.73,9.72-34.88,17.7-4.75,3.74-17.66,13.46-19.55,19.18-2.71,8.18,7.14,8.29,13.91,10.41,9.81,3.08,19.38,6.86,29.29,9.72,22.33,6.43,60.07,11.45,75.68-10.74,4.91-7,5.57-17.28,1.44-24.71-1.62-2.92-4-4.26-5.76-6.87C4986.25,370.7,4989.23,367.89,4984.3,366.08Z" transform="translate(-66.58 -56.46)"/><path class="cls-1" d="M5045.89,446.5a16.41,16.41,0,0,0-2.74-5.44c-11.71-15.14-38.72-18.1-55.74-16.51-13.49,1.27-40.23,7.37-47.25,21.53-6.82,13.75,24.71,24.79,34.79,28.68,19,7.32,44.71,8.18,64.45,3.72C5060,473.83,5049.82,459.81,5045.89,446.5Z" transform="translate(-66.58 -56.46)"/><path class="cls-1" d="M5056.86,479.9c-8-16.61.34-38,8.36-52.95,4.76-8.86,19.51-34.1,31.72-34.64,17.26-.77-1.13,56-5,64.33C5088.78,463.33,5066.74,501.79,5056.86,479.9Z" transform="translate(-66.58 -56.46)"/><path class="cls-1" d="M4925.7,322c1.73,4.27,4.81,7.24,8.24,10.18a77.34,77.34,0,0,1,8.53,8.92,99.81,99.81,0,0,0,9.74,10.09c3.64,3.24,7.38,6.37,11.16,9.45,7.47,6.08,15.11,12,22.52,18.12a205.82,205.82,0,0,1,19.75,18.75q4.65,5,8.95,10.36c.7.87,1.39,1.75,2.09,2.63.51.66-.61-.79-.1-.12l.4.53c.41.53.81,1.07,1.21,1.61q2.07,2.76,4,5.6a155.6,155.6,0,0,1,13.41,23.6c.41.91.82,1.83,1.22,2.75l.34.79.12.28c-.31-.72,0,0,0,.09l.4,1q1.26,3.08,2.42,6.18c1.54,4.13,3,8.3,4.33,12.48,1.46,4.48,2.93,9,4.18,13.51s2.36,9.43,3.48,14.16c2.25,9.42,4.91,18.59,9.42,27.2,4,7.71,9.16,14.77,14.31,21.76l3.85,5.24a6.41,6.41,0,0,0,3.51,2.71,6,6,0,0,0,4.54-.6c2.45-1.58,4.05-5.39,2.11-8-5.11-7-10.42-13.89-14.93-21.31q-1.71-2.79-3.23-5.68c-.49-.94-1-1.89-1.42-2.85q-.33-.66-.63-1.35a9.61,9.61,0,0,0-.78-1.76c.09.12.5,1.23.09.22l-.24-.6c-.18-.47-.37-.95-.54-1.42-.41-1.09-.79-2.2-1.15-3.31-.74-2.34-1.4-4.7-2-7.08-2.43-9.35-4.41-18.77-7.31-28-2.68-8.49-5.48-16.95-8.88-25.17a163.43,163.43,0,0,0-12.6-24.82,196.48,196.48,0,0,0-16.78-22.68,207.74,207.74,0,0,0-19.13-19.67c-7-6.3-14.47-12.07-21.84-17.93s-15.17-11.83-21.91-18.58c-3.27-3.28-6.15-6.93-9.2-10.41-2.58-3-5.73-5.24-8.52-8-.59-.58-1.1-1.25-1.69-1.83,1.14,1.12.25.32,0-.15s-.81-1.76-.09,0a6.48,6.48,0,0,0-2.7-3.51,6.05,6.05,0,0,0-4.54-.6c-2.74.89-5.34,4.19-4.11,7.24Z" transform="translate(-66.58 -56.46)"/><path class="cls-1" d="M5336,201.72c-29.56-14.15-66.22-16.33-87.06-45.55-11.81-16.56-15.39-37.36-22.14-55.91-4.4-12.09-13.84-23.18-15.29-36.26-.88-8-3.54-8,5.33-7.21,6.87.63,17.1,6.28,23.82,8.39,14.19,4.46,29.1,9,42.71,15.17,24,10.93,34,30.63,43.92,53.89,8.74,20.41,11.79,44.13,10.95,66.36" transform="translate(-66.58 -56.46)"/><path class="cls-1" d="M5550.42,471.38a42.11,42.11,0,0,0,9.81-6.6,22.37,22.37,0,0,0,2.74-2.93,27.86,27.86,0,0,0,5.74-26,44.47,44.47,0,0,0-7.58-15.58,74.64,74.64,0,0,0-12.51-13.46,83.42,83.42,0,0,0-8.7-6.39,109.28,109.28,0,0,1-9.53-6.11l2.26,1.75a34,34,0,0,1-5.69-5.55l1.75,2.26a21.06,21.06,0,0,1-2.75-4.61l1.13,2.68a18.79,18.79,0,0,1-1.24-4.59l.4,3a23.46,23.46,0,0,1,.08-5.92l-.4,3a86,86,0,0,1,3-11.9,58.77,58.77,0,0,0,2.63-15.27,37.84,37.84,0,0,0-4.93-19,33,33,0,0,0-7.14-9,40.49,40.49,0,0,0-5.41-4,46.46,46.46,0,0,0-6.19-2.89c-5.79-2.4-12.06-3.28-17.86-5.67l2.68,1.12a26.46,26.46,0,0,1-6-3.42L5489,318a24,24,0,0,1-4-4.1l1.74,2.27a21.66,21.66,0,0,1-2.46-4.21l1.13,2.67a25,25,0,0,1-1.62-6.07l.4,3a84.76,84.76,0,0,1-.38-10.45,58.91,58.91,0,0,0-1.4-13.5,44,44,0,0,0-4.55-11.18,45.72,45.72,0,0,0-6.23-8.4c-7.6-8.18-17.87-12.24-27.84-16.62a71.08,71.08,0,0,1-14.95-8.34l2.26,1.75a38.84,38.84,0,0,1-6.82-6.8l1.75,2.27a39.31,39.31,0,0,1-4.93-8.51l1.12,2.67q-1-2.34-1.71-4.76a11.71,11.71,0,0,0-5.14-6.69,11.19,11.19,0,0,0-16.44,12.64,51.28,51.28,0,0,0,13.74,22.8,62.45,62.45,0,0,0,7,5.48c6.82,4.68,14.68,7.45,22.15,10.87a61.12,61.12,0,0,1,12,6.9l-2.26-1.75a35.56,35.56,0,0,1,6.16,6.1l-1.75-2.27a35.15,35.15,0,0,1,4.48,7.74l-1.13-2.67a31.9,31.9,0,0,1,2.18,8.08l-.4-3c.54,4.29.32,8.6.43,12.91a62.12,62.12,0,0,0,.9,8.71,32.89,32.89,0,0,0,2.89,8.38,30.45,30.45,0,0,0,5.52,7.71,34.63,34.63,0,0,0,6.63,5.32,49.43,49.43,0,0,0,12.65,5.19,105.11,105.11,0,0,1,12.06,3.73l-2.68-1.13a27,27,0,0,1,5.76,3.32l-2.27-1.75a23,23,0,0,1,3.83,3.81l-1.75-2.26a29.59,29.59,0,0,1,3.72,6.42l-1.13-2.68a26.3,26.3,0,0,1,1.79,6.55l-.4-3a29.7,29.7,0,0,1-.07,7.71l.4-3a76,76,0,0,1-2.68,11,72.79,72.79,0,0,0-2.76,13.24,30.06,30.06,0,0,0,2.88,15.5c2.63,5.8,7.41,10.15,12.36,13.95,4.56,3.5,9.77,6,14.33,9.45l-2.27-1.75a65.38,65.38,0,0,1,11.7,11.57l-1.75-2.26a43.83,43.83,0,0,1,5.76,9.61l-1.13-2.67a26.87,26.87,0,0,1,1.82,6.44l-.4-3a19.08,19.08,0,0,1,0,5.12l.4-3a16.81,16.81,0,0,1-1.09,4l1.13-2.67a18,18,0,0,1-2.21,3.8l1.75-2.27a23.07,23.07,0,0,1-4.19,4.13l2.26-1.75a35.51,35.51,0,0,1-6.09,3.66c-2.41,1.16-4.46,4.19-5.15,6.69a11.48,11.48,0,0,0,1.13,8.62,11.3,11.3,0,0,0,6.69,5.14,12.49,12.49,0,0,0,8.62-1.13Z" transform="translate(-66.58 -56.46)"/><path class="cls-1" d="M5382.48,132c12.17,9.76,29.51,40.83.48,39.93-17.84-.55-21.06-43.43-5.23-42.78" transform="translate(-66.58 -56.46)"/><path class="cls-1" d="M5273.75,1003.23c12.17,9.76,29.51,40.83.48,39.93-17.83-.55-21.06-43.43-5.23-42.78" transform="translate(-66.58 -56.46)"/><path class="cls-1" d="M5106.47,989.55c8.19-22.75,20.27-46.24,22.87-70,2.32-21.13-11.6-40-28.73-48.52-6.2-3.1-16.51-8.52-25.37-5.3-9.1,3.3-11.5,13-14.41,20.1-10.2,24.91-7.28,47.44,3.91,66.51,4,6.79,27.28,43.76,40.14,38.27" transform="translate(-66.58 -56.46)"/><path class="cls-1" d="M5193.78,1039.66c-1-2.26-3.24-3.91-5.14-5.36a66.53,66.53,0,0,0-6-4c-4.35-2.63-8.6-5.29-12.84-8.1a209.76,209.76,0,0,0-18.63-11c-6.3-3.31-12.8-6.18-19.22-9.24a384.14,384.14,0,0,1-35.83-19.37c-5.67-3.49-11.24-7.17-16.66-11.05q-2-1.45-4-2.94l-2-1.49-.79-.6-.36-.28q-3.92-3.06-7.73-6.26a366.37,366.37,0,0,1-29-27.59q-6.78-7.12-13.16-14.63-3.16-3.75-6.22-7.6l-1.52-1.93s-1-1.27-.43-.55-.43-.57-.43-.57c-1-1.3-2-2.62-3-3.94a267.43,267.43,0,0,1-21.58-34.34c-6.68-12.73-12.33-26-18.33-39-3-6.52-6.07-13-9.4-19.35s-7.25-12.55-11.16-18.67A160.43,160.43,0,0,1,4940,773.68c-2.73-5.85-5-11.9-8.1-17.58a62,62,0,0,0-5.82-8.79c-1.94-2.48-6.47-2.19-8.48,0-2.42,2.64-2.07,5.83,0,8.48-.91-1.16.52.75.74,1.07.45.65.88,1.31,1.3,2,.84,1.35,1.62,2.74,2.35,4.15,1.5,2.86,2.82,5.8,4.11,8.76a158.37,158.37,0,0,0,8.79,17.76c3.72,6.25,7.81,12.26,11.56,18.49s7,12.6,10.07,19.08c6.22,13,11.8,26.22,18.09,39.15a273.87,273.87,0,0,0,20.63,35.52c15.15,22,33.34,41.71,53,59.76,20,18.37,42.91,33.22,67.05,45.55,12.52,6.4,25.53,11.79,37.72,18.83,5.62,3.25,10.87,7,16.36,10.44,4,2.53,8.29,4.74,12.17,7.53.27.19.52.41.8.59-.05,0-1.18-1-.48-.36.36.31.72.61,1.06.94a11.79,11.79,0,0,0,.83.89l-.34-.43c-.37-.5-.45-.59-.23-.27,0,.08.21.4.25.48,1.3,2.87,5.68,3.79,8.21,2.16,3-1.91,3.54-5.14,2.15-8.21Z" transform="translate(-66.58 -56.46)"/><path class="cls-1" d="M5178.57,1040.8c-22.65,14.55-44.72,32.38-70.53,43-23,9.44-49.22,5.52-65-4.61-5.72-3.66-15.56-9.65-15.15-17.66.43-8.22,10.46-13.57,17.42-18.4a117.58,117.58,0,0,1,76.3-21c9.09.61,59.14,5.21,57.62,17.12" transform="translate(-66.58 -56.46)"/><path class="cls-1" d="M5113.25,1005.76c-24.49,9.83-49.38,23.18-75.65,28.2-23.36,4.46-46-5.67-57.55-19.81-4.16-5.11-11.41-13.59-8.82-21.78,2.65-8.42,13.2-11.64,20.83-15,26.68-11.85,52.21-11.85,74.81-4.15,8.05,2.74,52.05,19.07,47.39,31" transform="translate(-66.58 -56.46)"/><path class="cls-1" d="M5039.07,954.93c-19.36,3.6-39.74,10-59.34,9.37-17.43-.53-31.3-12.7-36.45-26.12-1.86-4.86-5.19-13-1.64-19.11,3.65-6.31,11.77-7,17.87-8.43,21.33-4.84,39.35-.33,53.68,9.86,5.11,3.63,32.73,24.55,26.91,33.38" transform="translate(-66.58 -56.46)"/><path class="cls-1" d="M4990.2,893.46c-16.19.51-33.65,3.33-49.34.1-14-2.87-23.13-15.52-25.07-28.09-.71-4.55-2.05-12.18,1.82-17.12s10.64-4.6,15.78-5c18-1.34,31.75,5.13,41.63,16.11,3.51,3.9,22.32,26.2,16.19,33.2" transform="translate(-66.58 -56.46)"/><path class="cls-1" d="M5183.6,1030.64c8.18-22.74,20.27-46.23,22.87-70,2.31-21.14-11.61-40-28.74-48.53-6.19-3.09-16.5-8.51-25.37-5.29-9.1,3.3-11.5,13-14.41,20.1-10.2,24.91-7.28,47.43,3.92,66.51,4,6.79,27.27,43.75,40.14,38.27" transform="translate(-66.58 -56.46)"/><path class="cls-1" d="M5025.46,923.92c10-15.41,23-31.26,29.22-47.5,5.51-14.44-1.09-27.67-11.87-33.91-3.91-2.26-10.35-6.2-17.32-4.19-7.16,2.07-10.65,8.66-14,13.47-11.89,16.86-13.88,32.37-9.29,45.7,1.64,4.74,11.69,30.61,22,27.13" transform="translate(-66.58 -56.46)"/><path class="cls-1" d="M4988.64,870.07c7.89-12.12,18.09-24.57,23-37.34a21.31,21.31,0,0,0-9.33-26.65c-3.06-1.78-8.13-4.88-13.61-3.3s-8.37,6.81-11,10.59c-9.34,13.25-10.91,25.45-7.3,35.92,1.29,3.73,9.19,24.07,17.26,21.33" transform="translate(-66.58 -56.46)"/><path class="cls-1" d="M4962.33,818.56c7.29-10.55,16.67-21.44,21.28-32.47,4.1-9.8-.33-18.54-7.81-22.5-2.71-1.43-7.17-4-12.1-2.45s-7.62,6-10.08,9.33c-8.62,11.55-10.26,22-7.24,30.84,1.07,3.15,7.73,20.29,15,17.75" transform="translate(-66.58 -56.46)"/><path class="cls-1" d="M4956.93,819.78c-11.81,1.35-24.81,4.39-35.83,3.11-9.8-1.14-15-9.38-15-18,0-3.12-.1-8.35,3.28-12s8.25-3.86,12-4.44c13.21-2,22.46,1.61,28.38,8.64,2.1,2.51,13.21,16.87,8,22.12" transform="translate(-66.58 -56.46)"/><path class="cls-1" d="M4936.48,773.49c2.12-11.27,6.18-23.68,5.34-34.19-.75-9.34-9.63-14.28-19.2-14.22-3.47,0-9.26-.06-13.52,3.17s-4.71,7.89-5.56,11.49c-3,12.6.61,21.42,8.1,27,2.67,2,18,12.54,24.12,7.51" transform="translate(-66.58 -56.46)"/><path class="cls-1" d="M5443.34,925.33c9.39-22,23.29-43.28,34.18-64.84,20.41-40.4,46.43-74.26,54.22-120.3,5.07-30,3.42-62,5.71-92.31,1.06-14-3.33-26.52-7.46-39.74-2.85-9.12-3.12-22.69-7.37-30.57-9.48,3.34-18.49,18.29-24.59,26.15-13.22,17-24.56,36.07-36.29,54.12-17.52,27-38.06,53.21-52.78,81.94-28.21,55-37.8,109.1-5.46,163.64,6,10.11,23.84,36,38.55,22.39" transform="translate(-66.58 -56.46)"/><path class="cls-2" d="M5496.8,677.7c-15.09,26.42-29.9,53-41.12,79.35a325.61,325.61,0,0,0-13.93,38.86,250.37,250.37,0,0,0-7.5,36.27c-1.49,11.24-3.17,21.56-4.4,30.75s-2.09,17.24-2.44,23.89.23,11.91,1.34,15.2a16.24,16.24,0,0,0,1.62,3.53l.76,1-.43-.7a6.58,6.58,0,0,1-.47-.9l-.28-.59-.26-.71a27.63,27.63,0,0,1-1.3-9.37,108.83,108.83,0,0,1,1.49-15.09c.85-5.84,2-12.41,3.36-19.58s2.87-14.95,4.29-23.25c.37-2.06.67-4.2,1.07-6.29s.76-4.22,1.15-6.37.85-4.3,1.34-6.48.94-4.38,1.48-6.58c1.18-4.39,2.23-8.88,3.64-13.35.68-2.24,1.31-4.51,2.05-6.76l2.24-6.77c3.12-9,6.53-18.16,10.31-27.16C5472.37,728.73,5486.16,701.55,5496.8,677.7Z" transform="translate(-66.58 -56.46)"/><path class="cls-1" d="M5309.32,852.81c37.48,15.11,92.17,110.83,17.76,108.62-57.93-1.73-114.27-110.58-28-108.62" transform="translate(-66.58 -56.46)"/><path class="cls-1" d="M4971.82,567.48c-27.67-17.56-48.95-47.49-84.78-49.66-20.3-1.23-39.83,6.76-59.14,10.87-12.59,2.68-27,.56-38.85,6.27-7.21,3.47-8.68,1.25-3.29,8.34,4.18,5.48,14.39,11.16,19.74,15.75,11.31,9.66,23.05,19.9,35.51,28.16,22,14.56,44,12.56,69,8.67,21.94-3.41,43.67-13.41,62.07-25.91" transform="translate(-66.58 -56.46)"/></svg>