<svg id="Calque_1" data-name="Calque 1" xmlns="http://www.w3.org/2000/svg" viewBox="0 0 5484.62 1032.71"><defs><style>.cls-1{fill:#fff;}</style></defs><path class="cls-1" d="M473.58,452.27c-3.75-30.37-4.28-61.71-11.05-91.63A274,274,0,0,0,425.79,274s-33.62-49.66-39.36-71.44C381.9,211,361.84,227,361.84,227,347,239.54,330.9,251.21,318,265.82c-7.77,8.8-13.18,18.59-14.77,30.3-2.76,20.43,16.27,33.92,22.06,52.51,4.73,15.2-3.11,47.63-22.39,29.57-10-9.41-14.65-22.93-21.25-34.45-10.19-17.78-16.08-15.64-28.18-1.83-14.2,16.21-28.24,31.85-42,48.36-31.8,38.25-64.44,85.91-58.64,138.34,4,36.55,28,62.4,49.92,89.45,17.15,21.16,39.09,45,64.59,56.18,26.67,11.65,58.14,7.12,85.78,3.75,5.28-.64,12.18-.1,16.92-1.15,5.35-1.19,9-6.43,14.61-6.8l1.75.88c3.84-7,14.05-12,19.87-17.67,11.24-11,23.21-22.57,31-36.27,7.05-12.34,12.37-25.89,18.28-38.82,7.08-15.5,16.84-30.36,20.86-47.07C482.48,506.1,476.66,477.25,473.58,452.27ZM315.15,611a107.89,107.89,0,0,1-3.07,21.34c-1.82,7-4.61,13.6-7.05,20.38a91.54,91.54,0,0,0-3.13,10.39A59.67,59.67,0,0,0,300.4,674,66.32,66.32,0,0,1,303,655c1.72-6.29,4-12.42,5.62-18.73a82.48,82.48,0,0,0,1.83-8.76,40.61,40.61,0,0,0-3-8.81,62.47,62.47,0,0,0-8.18-12.92,141.05,141.05,0,0,0-13.59-14.38c-2.65-2.5-5.46-5.05-8.4-7.7s-6-5.45-9.05-8.27c-6.18-5.66-12.89-11.7-18.94-19a62.5,62.5,0,0,1-13.44-25.73c-2.65-9.43-4-19.08-7.59-28.52,4.6,7.34,7.5,16.31,10.73,25.06A94.9,94.9,0,0,0,244.76,540c.52,1,1.18,2,1.76,3s1.29,1.9,1.95,2.86c1.4,1.89,2.88,3.74,4.42,5.55a183.72,183.72,0,0,0,12.93,13.26l6.7,6.35,3.29,3.17,3.2,3.11c8.5,8.23,16.32,16.36,21.84,24.33a69.2,69.2,0,0,1,6.59,11.5,46.36,46.36,0,0,1,3.11,9.79c.13.66.23,1.28.31,1.88.33-2.65.57-5.32.7-8,.35-6.69.2-13.49.16-20.5a261.34,261.34,0,0,1,3.63-42.54,158,158,0,0,1,5-21.25c2.07-7,4.37-13.76,6.4-20.57.05-.18.09-.35.14-.52l-.49-.87c-.53-.89-1.22-2-2-3.21s-1.76-2.65-2.91-4.17a128.11,128.11,0,0,0-8.65-10.47c-3.52-3.87-7.67-8-12.3-12.52l-7.25-7c-2.51-2.43-5.13-5.05-7.64-7.9a73.17,73.17,0,0,1-13-20.3,74,74,0,0,1-3.86-12.12c-.95-4.06-1.86-8.19-2.75-12.35-1.79-8.32-3.52-16.79-5.53-25.33a198.44,198.44,0,0,1,8.9,22.26c1.35,4,2.65,8,3.92,12.12.64,2.07,1.25,4.05,2,6,.35,1,.69,2,1.09,2.92s.77,1.93,1.19,2.87a75.3,75.3,0,0,0,7.92,13.8,126.15,126.15,0,0,0,10,12c7.11,7.54,13.78,14.82,18.84,21.57a115.38,115.38,0,0,1,6.52,9.53,82.47,82.47,0,0,1,4.23,7.84c.89,1.93,1.55,3.5,2,4.7,1.17-4,2.24-8.06,3.09-12.1A109.24,109.24,0,0,0,332,485.31c.75-9.05.84-18.33,2.11-27.63a145.37,145.37,0,0,1,6.69-26.82c2.94-8.58,6.26-16.77,9.6-24.84s6.93-15.79,10-23.45a136.62,136.62,0,0,0,7.19-22.83,171.07,171.07,0,0,0,2.71-22.58c.46-7.39.62-14.57.73-21.48s.19-13.6.51-19.92.69-12.31,1.11-17.93.87-10.86,1.29-15.7.77-9.3,1.1-13.32.81-7.66,1.37-10.8a69,69,0,0,1,1.88-7.88c.66-2.11,1.27-3.69,1.71-4.75l.69-1.59s-.34.87-.92,2.55a57.26,57.26,0,0,0-1.95,7.58,95.53,95.53,0,0,0-1.4,12.42c-.28,4.89-.38,10.51-.69,16.8-.52,12.58-1.31,27.87-1,45.35.15,8.76.35,18.11,0,28-.17,4.95-.45,10-1,15.24a108.54,108.54,0,0,1-2.79,15.92c-2.72,10.69-7.07,21.26-11.57,32-1.68,4-3.34,8-5,12.1a92.4,92.4,0,0,1,7.71-9.65,132.36,132.36,0,0,1,13.05-12.36c4.89-4.06,10.24-8,15.87-12,11.25-7.89,23.55-15.41,35.45-24.44a116.37,116.37,0,0,1-14.07,14.76c-5.31,4.78-11.11,9.34-16.92,13.77-7.5,5.72-15,11.26-21.71,16.8a142.42,142.42,0,0,0-17,16.3,87.15,87.15,0,0,0-7.25,9.52c-1,2.82-2.05,5.67-3,8.55a162.75,162.75,0,0,0-4.9,17.76,126.77,126.77,0,0,0-2.39,18.64c-.43,6.42-.67,13-1.41,19.75-.37,3.36-.86,6.76-1.57,10.14s-1.57,6.68-2.52,10c-.84,2.93-1.75,5.84-2.69,8.73a63.46,63.46,0,0,1,6.15-8.23,104.55,104.55,0,0,1,12.4-11.8c2.42-2,5-4,7.71-5.93s5.54-4,8.51-5.95c5.95-3.94,12.38-7.77,19-11.61s13.55-7.72,20.44-11.9a225.27,225.27,0,0,0,20.36-13.91,109.45,109.45,0,0,1-16.4,16.09A211.29,211.29,0,0,1,389,478.89c-9,5.68-18.1,11-26.32,16.41S346.94,505.86,341.14,511a66.72,66.72,0,0,0-12.34,13.83l-.11.18c-2.58,7.75-5.16,15.48-7,23.43A283.58,283.58,0,0,0,316,589.75C315.53,596.76,315.58,603.87,315.15,611Zm100.14-57.5c-3.28,3-6.7,6-10.17,8.91l-2.61,2.19c-.88.73-1.72,1.45-2.71,2.21a50,50,0,0,1-6,4,146.24,146.24,0,0,1-16.17,7.71c-2.65,1.14-5.25,2.25-7.75,3.44-1.24.6-2.47,1.19-3.65,1.83l-3.72,2c-5,2.52-9.71,4.81-14.15,7.11s-8.56,4.56-12.25,6.82a87.39,87.39,0,0,0-9.59,6.69,38.77,38.77,0,0,0-6.23,6.25,17.32,17.32,0,0,0-2.69,4.8,8.72,8.72,0,0,0-.41,1.36l-.13.48s0-.26.05-.77a12.57,12.57,0,0,1,.38-2.28,23.13,23.13,0,0,1,4.28-8.07A60.08,60.08,0,0,1,332.2,598a143.06,143.06,0,0,1,15.69-10.58c3-1.77,6.1-3.53,9.32-5.32,1.6-.89,3.24-1.8,4.84-2.73.85-.48,1.7-1,2.57-1.45s1.77-.94,2.67-1.4c7.22-3.61,15-6.39,22.37-10.13,1.81-1,3.63-1.94,5.35-3.07.88-.55,1.68-1.14,2.55-1.75l2.66-2,10.8-7.84a232.47,232.47,0,0,0,21.39-17.1A122.25,122.25,0,0,1,415.29,553.54Z" transform="translate(-66.58 -56.46)"/><path class="cls-1" d="M655.9,645c-8.47-1.54-16.74-4.71-25.07-6.88-19.43-5.06-40.64-10.8-58.13-20.69-26.19-14.83-52.92-28.57-83.4-31C449.25,583.2,410.46,603,377,622.54c-18.72,11-34,22.65-39.44,44.28-4.87,19.28-6.7,39.31-9.81,58.89-3.86,24.37,6.37,48.27.75,72.92,57.14,24.77,122.64,37.8,181.35,9.66,28.53-13.66,56.22-32,76.47-56.57,16.79-20.38,29-43.72,47-63.27,7.18-7.8,15.59-14.77,23.51-21.81,5.88-5.24,10.73-12.55,16.92-17.14C668.59,645.66,662.07,646.09,655.9,645ZM443.32,783.3c-6.38-4.1-12.66-8.24-18.62-11.95A142.16,142.16,0,0,0,408.18,762a56.75,56.75,0,0,0-6.95-2.63,39.9,39.9,0,0,0-5.57-1.26,34.07,34.07,0,0,0-3.66-.36l-1.31-.06,2-.45c.67-.13,1.51-.22,2.51-.35s2.17-.16,3.47-.11a41,41,0,0,1,9.39,1.32,66.76,66.76,0,0,1,11.61,4.2,160.56,160.56,0,0,1,26.12,15.51c9,6.46,18,14,27.05,21.91C463.43,795.79,453.18,789.65,443.32,783.3ZM634.85,659.73c-4.58,1-9.32,1.57-14,2.11s-9.31,1.47-14.13,2.33c-2.4.43-4.84.85-7.32,1.21-1.23.18-2.49.34-3.74.48l-3.68.43c-19.68,2.34-40,5.31-59.44,11.18-4.36,1.32-8.7,2.71-13,4.19,1.36,0,2.75.1,4.18.21a98.74,98.74,0,0,1,13.2,2c4.61,1,9.36,2.32,14.19,3.81,9.69,3,19.57,6.59,30.57,9a62.78,62.78,0,0,1-15.26,0,127.53,127.53,0,0,1-16-3c-6.82-1.68-13.46-3.59-19.69-5a139.5,139.5,0,0,0-17.13-3c-1.38-.14-2.69-.23-3.93-.26-4.67,1.83-9.26,3.8-13.73,5.94-11.51,5.11-20.54,14.11-30.89,21.55a61.07,61.07,0,0,1-8.19,5.08c-2.43,1.26-4.88,2.35-7.32,3.34l.76,0a72.72,72.72,0,0,1,10.7,1.13,110.33,110.33,0,0,1,13.56,3.39c9.77,3,20.59,7.68,32.14,12.19a148.7,148.7,0,0,0,18.15,5.7c6.37,1.59,13,2.85,19.8,4a97.56,97.56,0,0,1-18.82.28,88.86,88.86,0,0,1-20.06-4c-8.43-2.76-16.42-6.26-23.84-9.46s-14.28-6.13-20.31-8.14c-3-1-5.8-1.84-8.29-2.46s-4.77-1.11-6.47-1.36l-.47,0c-5,1.9-9.8,3.57-14.27,5.52-2.55,1.11-4.92,2.29-7.32,3.62s-4.7,2.65-6.94,4a146.92,146.92,0,0,0-12.52,8.63c-3.86,3-7.29,6.1-10.59,9.17s-6.42,6-9.49,8.71a96.71,96.71,0,0,1-9,7.07,59.66,59.66,0,0,1-8.52,4.82l-7,3.25c-2,1-3.65,1.82-5,2.58s-2.25,1.4-2.87,1.85l-.95.68s.47-.41,1.41-1.18a42.26,42.26,0,0,1,4.44-3.08c2-1.26,4.65-2.66,7.74-4.33a66,66,0,0,0,10.13-6.48,114.42,114.42,0,0,0,11-10c2.46-2.48,5-5.17,7.72-7.93v-.11a60.41,60.41,0,0,0-.91-6.29c-.51-2.66-1.29-5.82-2.28-9.42S389,725.85,388,721.24a78.83,78.83,0,0,1,.13-32.21,72.64,72.64,0,0,1,5.93-17.2,57.53,57.53,0,0,1,10.69-15.13,111.81,111.81,0,0,0-10.59,32.44,118,118,0,0,0-1.69,22.46c.11,3.6.35,7,.76,10.35s.86,6.52,1.24,9.44.64,5.72.76,8.18a55.88,55.88,0,0,1,0,6.39c-.07,1.08-.16,2-.26,2.77,1.32-1.32,2.68-2.65,4.11-4A134.17,134.17,0,0,1,415,732.24q4.42-3,9.31-5.8a90.81,90.81,0,0,1,10.44-5.08c6.81-2.88,13.95-5.35,20.46-9.06a32.5,32.5,0,0,0,1.23-3.56c.42-1.42.8-3,1.24-4.73s.9-3.58,1.33-5.57c.89-4,1.71-8.48,2.51-13.41s1.55-10.29,2.53-16a124.67,124.67,0,0,1,4.32-18,65.15,65.15,0,0,1,8.84-17.92,42.84,42.84,0,0,1,15.23-13.28,58.52,58.52,0,0,0-10.93,14.09,86.32,86.32,0,0,0-7.15,17.81c-2.35,8.12-3.93,16.53-5.58,24.51a167.88,167.88,0,0,1-5.8,21.68c-1.08,3.1-2.29,6-3.33,8.33-.76,1.75-1.51,3.35-2.28,4.75a99,99,0,0,0,8.92-6.55c3.31-2.65,6.66-5.48,10.2-8.25A95.08,95.08,0,0,1,488,688.37c2.11-1.18,4.19-2.21,6.3-3.2s4.25-2,6.42-2.89c6.22-2.67,12.66-5,19.24-7.15,2-2.53,4.55-6.13,7.73-10.31a82.09,82.09,0,0,1,12.6-13.66,43,43,0,0,1,9.09-5.79,32.37,32.37,0,0,1,10.73-2.8,111.82,111.82,0,0,0-15.35,12.57c-3.23,3.12-6.4,6.41-9.48,9.46s-6.09,5.87-8.84,8.11l-.84.66,2.23-.68c18.75-5.67,38.82-8.45,59.07-10l7.62-.53c2.53-.16,5-.36,7.56-.64,5.06-.54,10.15-1.25,15.28-1.67,2.57-.23,5.14-.31,7.71-.45s5.14-.32,7.71-.6A71.77,71.77,0,0,0,648,655.55,66.26,66.26,0,0,1,634.85,659.73Z" transform="translate(-66.58 -56.46)"/><path class="cls-1" d="M762.56,396c-1.9-5.72-14.8-15.44-19.55-19.18-10.15-8-22.29-14.65-34.88-17.7-10-2.43-20.7-4.09-30.76-2.13l1.37-1.13a130,130,0,0,0,10.56-9.61c3.15-3.34,5.93-7,9.05-10.36l.23-.23c18.39-7.44,33.6-22.56,44.68-38.64,5.21-7.57,21.59-52.1,4-46.65-19.08,5.89-37.64,30.08-45.15,47.37A174.44,174.44,0,0,0,692.79,325a88,88,0,0,0-8.32,9.05c-5.81,6.76-12.65,12.48-19.56,18.09,1.58-3.34,3-6.61,4.32-9.31,7-14.43,8.57-29,7.53-44.77-1.61-24.43-15.25-40.37-31-57.92-6.85-7.65-11-11.15-16.89-.53-5.24,9.47-6.82,20.5-10,30.74-8.3,27.14-15.31,57.2,2.36,82.15,3.47,4.91,11.45,15.4,19.28,19.25a206.42,206.42,0,0,0-19.33,18.66c-1,1.12-2,2.26-3,3.4a109.18,109.18,0,0,0-1.59-11.89c-2.73-13.39-11.7-29.3-20.35-39.85-13.69-16.68-36.42-24.78-54.84-35.25-14.12,22.77,8.66,67.06,22.37,84.86,7.31,9.49,15.09,16.8,26.18,21.31a51.33,51.33,0,0,0,11.5,2.87A156.27,156.27,0,0,0,590.43,436c-3.14,6.92-5.89,14-8.36,21.21-1.62-10.8-6.35-21.62-11-30.25-4.77-8.86-19.52-34.1-31.73-34.64-17.25-.77,1.13,56,5,64.33,2.61,5.59,18.4,33.3,29.29,29.58-.24,1-.49,1.94-.72,2.91-1.11,4.71-2.26,9.42-3.73,14-.33,1-.69,2.08-1.07,3.11q-.25.71-.54,1.41c-.1.27-.21.54-.32.81l0,.06c-.84,1.92-1.73,3.82-2.71,5.68-4,7.7-9.16,14.76-14.3,21.75-1.29,1.75-2.58,3.49-3.85,5.24-1.82,2.5-.51,6.67,2.11,8,3.06,1.62,6.1.56,8.05-2.11,5.15-7.06,10.5-14,15-21.49a97.28,97.28,0,0,0,10.8-25.77c2.18-8.22,3.93-16.53,6.29-24.71a23,23,0,0,0,8.19,3.29c19.74,4.46,45.48,3.6,64.45-3.72,10.08-3.89,41.61-14.93,34.8-28.68-7-14.16-33.77-20.26-47.26-21.53-12.23-1.15-29.63.06-42.8,6.46,1.38-2.49,2.83-4.95,4.36-7.36q3.62-5.7,7.66-11.12l1.08-1.43.4-.54.08-.1c.66-.88,1.36-1.73,2-2.58q2.19-2.72,4.46-5.34,6.45-7.46,13.59-14.26a24.44,24.44,0,0,0,3.92,17.09c15.62,22.19,53.36,17.17,75.68,10.74,9.91-2.86,19.49-6.64,29.3-9.72C755.41,404.27,765.27,404.16,762.56,396Z" transform="translate(-66.58 -56.46)"/><path class="cls-1" d="M300.25,201.72c29.56-14.15,66.23-16.33,87.06-45.55,11.81-16.56,15.39-37.36,22.14-55.91,4.41-12.09,13.84-23.18,15.29-36.26.88-8,3.54-8-5.33-7.21-6.87.63-17.09,6.28-23.82,8.39-14.19,4.46-29.09,9-42.7,15.17-24,10.93-34,30.63-43.93,53.89-8.74,20.41-11.79,44.13-10.94,66.36" transform="translate(-66.58 -56.46)"/><path class="cls-1" d="M97.17,452.06a35.6,35.6,0,0,1-6.1-3.66l2.27,1.75A23.07,23.07,0,0,1,89.15,446l1.75,2.27a18.08,18.08,0,0,1-2.22-3.8l1.13,2.67a17.3,17.3,0,0,1-1.09-4l.4,3a19.5,19.5,0,0,1,0-5.12l-.4,3a27.34,27.34,0,0,1,1.82-6.44l-1.12,2.67a43.79,43.79,0,0,1,5.75-9.61l-1.75,2.26a65.71,65.71,0,0,1,11.7-11.57L102.88,423c4-3,8.43-5.22,12.5-8.1,5.3-3.74,10.44-8.17,13.54-14a29.89,29.89,0,0,0,3.63-15.49,58.13,58.13,0,0,0-2.47-13.2A87.8,87.8,0,0,1,127,359.88l.4,3a29.7,29.7,0,0,1-.08-7.71l-.4,3a26.74,26.74,0,0,1,1.79-6.55l-1.13,2.68a30,30,0,0,1,3.73-6.42l-1.75,2.26a23,23,0,0,1,3.82-3.81L131.13,348a27,27,0,0,1,5.75-3.32l-2.67,1.13a86,86,0,0,1,10.69-3.35,58.61,58.61,0,0,0,12.8-4.86,33.57,33.57,0,0,0,12.6-12.27c3-5.21,4.17-11,4.49-17,.26-4.83-.11-9.67.49-14.49l-.4,3a32.32,32.32,0,0,1,2.18-8.08l-1.13,2.67a35.19,35.19,0,0,1,4.49-7.74L178.67,286a35.21,35.21,0,0,1,6.16-6.1l-2.27,1.75c6.55-5,14.38-7.9,21.86-11.22,8.35-3.7,16.65-8.43,22.58-15.54a54.33,54.33,0,0,0,10.39-19.29,11.19,11.19,0,1,0-21.58-6q-.74,2.42-1.71,4.76l1.13-2.67a40.14,40.14,0,0,1-4.93,8.51l1.75-2.27a38.9,38.9,0,0,1-6.83,6.8l2.27-1.75c-8.09,6.23-18,9.24-27,13.7a58,58,0,0,0-14.36,9.81,46.12,46.12,0,0,0-11.38,18.21,47.34,47.34,0,0,0-2.22,14.86,110,110,0,0,1-.4,11.91l.4-3a24.53,24.53,0,0,1-1.62,6.07l1.13-2.67a21.66,21.66,0,0,1-2.46,4.21l1.75-2.27a23.69,23.69,0,0,1-4,4.1l2.27-1.75a26.68,26.68,0,0,1-6,3.42l2.67-1.12c-5.16,2.13-10.71,3-15.95,4.93a39.71,39.71,0,0,0-9.83,4.76,36.48,36.48,0,0,0-9.64,9.94,38.16,38.16,0,0,0-6.08,19.15,50.17,50.17,0,0,0,2.18,15.52c1.22,4.44,2.79,8.82,3.42,13.4l-.4-3a23.46,23.46,0,0,1,.08,5.92l.4-3a18.79,18.79,0,0,1-1.24,4.59l1.13-2.68a21,21,0,0,1-2.74,4.61l1.75-2.26a33.65,33.65,0,0,1-5.7,5.55l2.27-1.75a86,86,0,0,1-8.68,5.59,77.53,77.53,0,0,0-8,5.69,65.86,65.86,0,0,0-11.23,11c-4.25,5.37-7.82,10.9-9.91,17.49a32.75,32.75,0,0,0-1.49,9.52,25.78,25.78,0,0,0,1.51,9.17A30.75,30.75,0,0,0,75.19,464a40.08,40.08,0,0,0,10.68,7.41,11.94,11.94,0,0,0,8.63,1.13,11.2,11.2,0,0,0,7.81-13.76c-.86-2.65-2.54-5.44-5.14-6.69Z" transform="translate(-66.58 -56.46)"/><path class="cls-1" d="M266.47,134.42a7.32,7.32,0,0,0-11.77-1.75c-12.2,12.6-27.51,40-1.36,39.21C267.1,171.45,272.16,145.8,266.47,134.42Z" transform="translate(-66.58 -56.46)"/><path class="cls-1" d="M362.54,1003.23c-12.17,9.76-29.51,40.83-.47,39.93C379.9,1042.61,378.37,1002.58,362.54,1003.23Z" transform="translate(-66.58 -56.46)"/><path class="cls-1" d="M453,1045.47c.14-.15.23-.26.27-.31l-.21.22Z" transform="translate(-66.58 -56.46)"/><path class="cls-1" d="M454.28,1044.25c.58-.4.6-.45.46-.36l-.33.24Z" transform="translate(-66.58 -56.46)"/><path class="cls-1" d="M714.88,788.42a39.88,39.88,0,0,0-12.75-.09c1.51-2.59,3-5.23,4.23-8,.84-1.76,1.63-3.55,2.42-5.34,6.58-1.75,14.08-6.93,15.87-8.27,7.5-5.61,11.06-14.43,8.1-27-.84-3.6-1.19-8.17-5.56-11.49s-10.05-3.15-13.51-3.17c-9.58-.06-18.46,4.88-19.2,14.22-.71,8.89,2.08,19.14,4.24,28.91a146.59,146.59,0,0,1-7.1,14.32c-.47.81-1,1.6-1.45,2.4a45,45,0,0,0-7.49-14.46c-2.47-3.3-5-7.8-10.08-9.33s-9.4,1-12.11,2.45c-7.48,4-11.91,12.7-7.8,22.5,4.21,10.06,12.38,20,19.32,29.7-.71,1.42-1.42,2.85-2.11,4.28-1.29,2.66-2.54,5.34-3.78,8a52,52,0,0,0-7.45-14.72c-2.67-3.79-5.41-9-11-10.59s-10.54,1.52-13.61,3.3a21.31,21.31,0,0,0-9.33,26.65c4.72,12.37,14.44,24.44,22.21,36.2q-5,9.38-10.63,18.35c.87-10.83-2.46-22.77-11.42-35.49-3.4-4.81-6.88-11.4-14.05-13.47-7-2-13.41,1.93-17.31,4.19-10.79,6.24-17.39,19.47-11.87,33.91,6,15.71,18.32,31,28.21,46-.81.92-1.62,1.84-2.44,2.75-8.9,9.89-18.37,19.25-28.18,28.24q-7.35,6.72-15.22,12.84l-.14.11-.22.17-.79.6c-.66.5-1.32,1-2,1.49l-.34.25c5.35-7.19,9.55-14,11-16.51,11.19-19.07,14.12-41.6,3.92-66.51-2.92-7.12-5.31-16.8-14.42-20.1-8.86-3.22-19.17,2.2-25.37,5.3-17.12,8.54-31,27.39-28.73,48.52,2.58,23.52,14.44,46.77,22.61,69.3q-7.87,4.47-16,8.56c-11,5.56-22.3,10.41-33.09,16.32a200.11,200.11,0,0,0,13.93-20.29c11.19-19.08,14.11-41.6,3.91-66.51-2.91-7.12-5.3-16.8-14.41-20.1-8.86-3.22-19.17,2.2-25.37,5.29-17.13,8.55-31.05,27.39-28.73,48.53,2.6,23.76,14.68,47.25,22.87,70l.18.13a61.23,61.23,0,0,0-5.22,3.53c-1.91,1.45-4.13,3.11-5.15,5.36-1.29,2.85-.91,6.59,2.15,8.21,2.63,1.38,6.83.9,8.21-2.16,0-.08.08-.16.13-.24-.11.12-.25.27-.45.46.18-.17.34-.36.51-.55s.29-.34.21-.22l.11-.12c.29-.28.59-.53.9-.79l-.31.21c.15-.1.29-.21.44-.33l0,0a2.09,2.09,0,0,1,.3-.21l0,0c1.24-.89,2.52-1.71,3.81-2.51,22.35,14.44,44.19,32,69.68,42.43,23,9.44,49.22,5.52,65-4.61,5.73-3.66,15.57-9.65,15.15-17.66C608,1053.3,598,1048,591,1043.12a117.57,117.57,0,0,0-76.3-21,289.22,289.22,0,0,0-32,4.16q5.11-3,10.37-5.68c6.3-3.23,12.78-6,19.15-9.13q5.57-2.68,11-5.55c24.41,9.82,49.2,23.09,75.38,28.09,23.37,4.46,46-5.67,57.55-19.81,4.17-5.11,11.41-13.59,8.83-21.78-2.66-8.42-13.21-11.64-20.84-15-23.62-10.49-46.34-11.69-66.93-6.48q1.76-1.43,3.48-2.89c5.29-4.5,10.44-9.2,15.46-14l1,1c19.36,3.6,39.73,10,59.33,9.37,17.44-.53,31.3-12.7,36.45-26.12,1.87-4.86,5.19-13,1.64-19.11-3.64-6.31-11.77-7-17.87-8.43-17.69-4-33.1-1.58-46,5.18,1.59-2.05,3.17-4.12,4.72-6.21q5.82-7.86,11.08-16.13c16.06.55,33.33,3.28,48.88.08,14-2.87,23.13-15.52,25.07-28.09.7-4.55,2-12.18-1.82-17.12s-10.65-4.6-15.78-5c-14.38-1.07-26,2.86-35.21,10.08,2.6-5.69,5.15-11.41,7.75-17.09,2.48-5.41,5-10.79,7.72-16.09,10.74,1.46,22.17,3.77,32,2.62s15-9.38,15-18c0-3.12.1-8.35-3.27-12S718.66,789,714.88,788.42Z" transform="translate(-66.58 -56.46)"/><path class="cls-1" d="M227.34,739.78c-14.73-28.73-35.27-55-52.79-81.94-11.72-18.05-23.07-37.1-36.28-54.12-6.11-7.86-15.12-22.82-24.6-26.15-4.25,7.88-4.51,21.45-7.36,30.57-4.14,13.22-8.53,25.72-7.47,39.74,2.29,30.32.64,62.32,5.71,92.31,7.79,46,33.82,79.9,54.23,120.3,10.88,21.56,24.78,42.8,34.17,64.84l1.29.48c14.72,13.58,32.56-12.28,38.55-22.39C265.13,848.88,255.54,794.8,227.34,739.78ZM210.23,894.36a29.62,29.62,0,0,1-1.81,10l-.33.78c-.12.24-.24.47-.35.67a6.61,6.61,0,0,1-.59,1c-.35.53-.54.8-.54.8l.74-1.3a18.21,18.21,0,0,0,1.34-4c.79-3.59.83-8.91-.1-15.48s-2.38-14.51-4.22-23.57-4.08-19.26-6-30.54a308.11,308.11,0,0,0-8.3-35.52c-3.67-12.42-8.28-25.31-13.53-38.47C166,732.4,152.88,705,141.11,676.91c12.3,23,26.84,49.81,38.73,77.92,3.88,9,7.33,18.27,10.46,27.45.75,2.3,1.49,4.6,2.24,6.88s1.34,4.6,2,6.88c1.39,4.54,2.4,9.13,3.54,13.6.52,2.25,1,4.5,1.42,6.72s.93,4.41,1.25,6.61.7,4.36,1,6.5.6,4.22.93,6.29c1.24,8.26,2.58,16.07,3.72,23.29s2.12,13.89,2.79,19.81A107.91,107.91,0,0,1,210.23,894.36Z" transform="translate(-66.58 -56.46)"/><path class="cls-1" d="M327,852.81c-37.48,15.11-92.16,110.83-17.75,108.62C367.15,959.7,413.28,850.85,327,852.81Z" transform="translate(-66.58 -56.46)"/><path class="cls-1" d="M664.47,567.48c27.67-17.56,49-47.49,84.78-49.66,20.31-1.23,39.83,6.76,59.14,10.87,12.59,2.68,27,.56,38.86,6.27,7.21,3.47,8.67,1.25,3.28,8.34-4.18,5.48-14.38,11.16-19.74,15.75-11.3,9.66-23,19.9-35.51,28.16-22,14.56-44,12.56-69,8.67-21.93-3.41-43.67-13.41-62.07-25.91" transform="translate(-66.58 -56.46)"/><path class="cls-1" d="M5141.3,531.1c4,16.71,13.77,31.57,20.85,47.07,5.91,12.93,11.23,26.48,18.28,38.82,7.84,13.7,19.8,25.31,31,36.27,5.82,5.67,16,10.62,19.88,17.67l1.74-.88c5.61.37,9.26,5.61,14.61,6.8,4.75,1,11.64.51,16.92,1.15,27.64,3.37,59.11,7.9,85.78-3.75,25.5-11.15,47.44-35,64.59-56.18,21.91-27.05,45.88-52.9,49.92-89.45,5.8-52.43-26.84-100.09-58.63-138.34-13.73-16.51-27.78-32.15-42-48.36-12.1-13.81-18-15.95-28.18,1.83-6.6,11.52-11.2,25-21.25,34.45-19.28,18.06-27.11-14.37-22.38-29.57,5.78-18.59,24.81-32.08,22.05-52.51-1.59-11.71-7-21.5-14.77-30.3-12.9-14.61-29-26.28-43.84-38.8,0,0-20.05-16-24.58-24.5C5225.61,224.3,5192,274,5192,274a274,274,0,0,0-36.73,86.68c-6.77,29.92-7.31,61.26-11.06,91.63C5141.11,477.25,5135.29,506.1,5141.3,531.1Zm160.48,58.65a285,285,0,0,0-5.72-41.33c-1.82-7.95-4.4-15.68-7-23.43l-.11-.18A66.72,66.72,0,0,0,5276.63,511c-5.8-5.12-13.27-10.32-21.55-15.68s-17.28-10.73-26.32-16.41a211.14,211.14,0,0,1-20.18-14.12,110,110,0,0,1-16.41-16.09,225.27,225.27,0,0,0,20.36,13.91c6.89,4.18,13.77,8.06,20.44,11.9s13.1,7.67,19,11.61q4.47,3,8.51,5.95c2.71,2,5.29,4,7.72,5.93a104.41,104.41,0,0,1,12.39,11.8,63.46,63.46,0,0,1,6.15,8.23c-.94-2.89-1.85-5.8-2.69-8.73-.95-3.29-1.8-6.59-2.51-10s-1.21-6.78-1.58-10.14c-.74-6.73-1-13.33-1.41-19.75a126.77,126.77,0,0,0-2.39-18.64,162.75,162.75,0,0,0-4.9-17.76q-1.44-4.32-3-8.55A88.66,88.66,0,0,0,5261,415a140.92,140.92,0,0,0-17-16.3c-6.68-5.54-14.21-11.08-21.71-16.8-5.81-4.43-11.61-9-16.92-13.77a115.57,115.57,0,0,1-14.06-14.76c11.89,9,24.19,16.55,35.45,24.44,5.62,3.92,11,7.9,15.86,12a133.64,133.64,0,0,1,13.06,12.36,95.1,95.1,0,0,1,7.71,9.65c-1.63-4.09-3.28-8.1-5-12.1-4.5-10.71-8.85-21.28-11.57-32a107.18,107.18,0,0,1-2.78-15.92c-.57-5.2-.85-10.29-1-15.24-.31-9.9-.1-19.25,0-28,.27-17.48-.51-32.77-1-45.35-.31-6.29-.41-11.91-.69-16.8a95.53,95.53,0,0,0-1.4-12.42,57.26,57.26,0,0,0-1.95-7.58c-.58-1.68-.92-2.55-.92-2.55l.69,1.59c.45,1.06,1.05,2.64,1.72,4.75a71.48,71.48,0,0,1,1.87,7.88c.56,3.14,1,6.76,1.37,10.8s.71,8.47,1.11,13.32.86,10.09,1.28,15.7.82,11.6,1.12,17.93.41,13,.5,19.92.27,14.09.73,21.48a171.07,171.07,0,0,0,2.71,22.58,136.62,136.62,0,0,0,7.19,22.83c3.07,7.66,6.61,15.4,10,23.45s6.66,16.26,9.59,24.84a143.79,143.79,0,0,1,6.69,26.82c1.27,9.3,1.36,18.58,2.11,27.63a109.24,109.24,0,0,0,1.83,13.36c.85,4,1.92,8.08,3.09,12.1.45-1.2,1.11-2.77,2-4.7a82.47,82.47,0,0,1,4.23-7.84,115.38,115.38,0,0,1,6.52-9.53,266.68,266.68,0,0,1,18.85-21.57,126.06,126.06,0,0,0,10-12,74.72,74.72,0,0,0,7.92-13.8c.42-.94.82-1.9,1.19-2.87s.75-1.94,1.09-2.92c.7-2,1.31-3.94,1.95-6,1.27-4.09,2.57-8.15,3.92-12.12a198.44,198.44,0,0,1,8.9-22.26c-2,8.54-3.74,17-5.53,25.33-.89,4.16-1.79,8.29-2.74,12.35a75,75,0,0,1-3.86,12.12,73.42,73.42,0,0,1-13.05,20.3c-2.51,2.85-5.13,5.47-7.64,7.9l-7.25,7c-4.63,4.48-8.78,8.65-12.29,12.52a126.4,126.4,0,0,0-8.66,10.47c-1.14,1.52-2.06,2.94-2.91,4.17s-1.46,2.32-2,3.21l-.49.87.15.52c2,6.81,4.32,13.62,6.39,20.57a158,158,0,0,1,5,21.25,260.24,260.24,0,0,1,3.63,42.54c0,7-.19,13.81.16,20.5.14,2.71.37,5.38.7,8,.08-.6.18-1.22.31-1.88a46.36,46.36,0,0,1,3.11-9.79,69.92,69.92,0,0,1,6.59-11.5c5.52-8,13.34-16.1,21.85-24.33l3.19-3.11,3.29-3.17,6.71-6.35c4.47-4.25,8.91-8.6,12.92-13.26q2.31-2.71,4.43-5.55c.65-1,1.32-1.89,1.94-2.86s1.24-2,1.77-3a96.12,96.12,0,0,0,5.68-12.77c3.24-8.75,6.13-17.72,10.73-25.06-3.59,9.44-4.94,19.09-7.58,28.52a70,70,0,0,1-5.26,13.76,68.62,68.62,0,0,1-8.18,12c-6.05,7.27-12.77,13.31-18.94,19-3.08,2.82-6.12,5.63-9.06,8.27s-5.75,5.2-8.4,7.7a142.17,142.17,0,0,0-13.59,14.38,62.47,62.47,0,0,0-8.18,12.92,40.61,40.61,0,0,0-2.95,8.81,80.09,80.09,0,0,0,1.84,8.76c1.65,6.31,3.89,12.44,5.61,18.73a66.32,66.32,0,0,1,2.63,19,59.67,59.67,0,0,0-1.5-10.85,91.54,91.54,0,0,0-3.13-10.39c-2.44-6.78-5.23-13.4-7.05-20.38a107.89,107.89,0,0,1-3.07-21.34C5302.2,603.87,5302.24,596.76,5301.78,589.75Zm-116.42-55.07a233.83,233.83,0,0,0,21.39,17.1l10.8,7.84,2.66,2c.87.61,1.67,1.2,2.55,1.75,1.72,1.13,3.54,2.11,5.35,3.07,7.36,3.74,15.16,6.52,22.37,10.13.9.46,1.79.93,2.68,1.4l2.57,1.45c1.6.93,3.23,1.84,4.84,2.73,3.22,1.79,6.35,3.55,9.32,5.32A143.84,143.84,0,0,1,5285.57,598a60.18,60.18,0,0,1,10.44,10.2,23.07,23.07,0,0,1,4.27,8.07,12.57,12.57,0,0,1,.38,2.28c0,.51.05.77.05.77l-.12-.48a9,9,0,0,0-.42-1.36,17.5,17.5,0,0,0-2.68-4.8,39.3,39.3,0,0,0-6.24-6.25,87.39,87.39,0,0,0-9.59-6.69c-3.68-2.26-7.8-4.53-12.24-6.82s-9.2-4.59-14.16-7.11l-3.72-2c-1.18-.64-2.41-1.23-3.65-1.83-2.49-1.19-5.1-2.3-7.75-3.44a146.24,146.24,0,0,1-16.17-7.71,50.82,50.82,0,0,1-6-4c-1-.76-1.83-1.48-2.71-2.21l-2.61-2.19c-3.47-2.93-6.89-5.89-10.16-8.91A121.83,121.83,0,0,1,5185.36,534.68Z" transform="translate(-66.58 -56.46)"/><path class="cls-1" d="M4944,649.5c6.2,4.59,11,11.9,16.93,17.14,7.91,7,16.32,14,23.5,21.81,18,19.55,30.25,42.89,47,63.27,20.26,24.58,47.95,42.91,76.47,56.57,58.71,28.14,124.21,15.11,181.35-9.66-5.62-24.65,4.61-48.55.75-72.92-3.1-19.58-4.94-39.61-9.81-58.89-5.47-21.63-20.72-33.33-39.44-44.28-33.44-19.55-72.23-39.34-112.28-36.15-30.48,2.43-57.2,16.17-83.4,31-17.48,9.89-38.7,15.63-58.12,20.69-8.34,2.17-16.61,5.34-25.08,6.88C4955.7,646.09,4949.18,645.66,4944,649.5Zm200.92,150.24c9.07-7.94,18-15.45,27-21.91a160.56,160.56,0,0,1,26.12-15.51,67.06,67.06,0,0,1,11.61-4.2,41.09,41.09,0,0,1,9.39-1.32c1.31,0,2.47.06,3.47.11s1.84.22,2.51.35l2,.45-1.31.06a34.3,34.3,0,0,0-3.66.36,40.22,40.22,0,0,0-5.57,1.26,57.37,57.37,0,0,0-6.95,2.63,143.83,143.83,0,0,0-16.52,9.33c-6,3.71-12.23,7.85-18.62,11.95C5164.59,789.65,5154.34,795.79,5144.89,799.74Zm-175.1-144.19a71.5,71.5,0,0,0,15.26,3.26c2.57.28,5.14.46,7.7.6s5.14.22,7.71.45c5.13.42,10.22,1.13,15.28,1.67,2.53.28,5,.48,7.57.64l7.61.53c20.25,1.54,40.32,4.32,59.07,10l2.23.68-.84-.66c-2.75-2.24-5.75-5.06-8.83-8.11s-6.25-6.34-9.48-9.46a111.88,111.88,0,0,0-15.36-12.57,32.31,32.31,0,0,1,10.73,2.8,42.79,42.79,0,0,1,9.09,5.79,82.09,82.09,0,0,1,12.6,13.66c3.19,4.18,5.75,7.78,7.73,10.31,6.58,2.14,13,4.48,19.24,7.15q3.26,1.4,6.42,2.89c2.11,1,4.19,2,6.3,3.2a94.3,94.3,0,0,1,11.47,7.83c3.55,2.77,6.89,5.6,10.21,8.25a100.28,100.28,0,0,0,8.91,6.55c-.77-1.4-1.52-3-2.27-4.75-1.05-2.38-2.25-5.23-3.33-8.33a166.21,166.21,0,0,1-5.81-21.68c-1.65-8-3.22-16.39-5.58-24.51a86.32,86.32,0,0,0-7.15-17.81,58.52,58.52,0,0,0-10.93-14.09,42.84,42.84,0,0,1,15.23,13.28,64.59,64.59,0,0,1,8.84,17.92,124.67,124.67,0,0,1,4.32,18c1,5.75,1.73,11.1,2.54,16s1.61,9.43,2.5,13.41c.43,2,.89,3.83,1.34,5.57s.82,3.31,1.23,4.73a32.5,32.5,0,0,0,1.23,3.56c6.51,3.71,13.65,6.18,20.46,9.06a91,91,0,0,1,10.45,5.08q4.86,2.8,9.31,5.8a134,134,0,0,1,15.9,12.5q2.15,2,4.11,4c-.1-.78-.19-1.69-.26-2.77a60.91,60.91,0,0,1,0-6.39c.12-2.46.39-5.21.76-8.18s.8-6.09,1.25-9.44.65-6.75.76-10.35a118,118,0,0,0-1.69-22.46A112.12,112.12,0,0,0,5213,656.7a57.8,57.8,0,0,1,10.7,15.13,73.06,73.06,0,0,1,5.92,17.2,78.83,78.83,0,0,1,.13,32.21c-1,4.61-2.18,8.66-3.15,12.27s-1.76,6.76-2.28,9.42a60.41,60.41,0,0,0-.91,6.29v.11c2.73,2.76,5.26,5.45,7.72,7.93a115.63,115.63,0,0,0,11,10,66.1,66.1,0,0,0,10.14,6.48c3.08,1.67,5.71,3.07,7.73,4.33a43.75,43.75,0,0,1,4.45,3.08c.94.77,1.4,1.18,1.4,1.18l-.95-.68c-.62-.45-1.58-1.08-2.87-1.85s-2.95-1.63-4.95-2.58l-7-3.25a59.66,59.66,0,0,1-8.52-4.82,95.35,95.35,0,0,1-9-7.07c-3.08-2.67-6.21-5.64-9.5-8.71s-6.72-6.21-10.59-9.17a145.35,145.35,0,0,0-12.52-8.63q-3.36-2.07-6.93-4c-2.41-1.33-4.77-2.51-7.32-3.62-4.48-2-9.31-3.62-14.27-5.52l-.48,0c-1.7.25-4,.76-6.47,1.36s-5.28,1.43-8.29,2.46c-6,2-12.89,4.92-20.31,8.14s-15.41,6.7-23.83,9.46a89,89,0,0,1-20.07,4,97.56,97.56,0,0,1-18.82-.28c6.78-1.15,13.43-2.41,19.8-4a147.61,147.61,0,0,0,18.15-5.7c11.55-4.51,22.38-9.16,32.15-12.19a110.2,110.2,0,0,1,13.55-3.39,72.72,72.72,0,0,1,10.7-1.13l.76,0c-2.44-1-4.89-2.08-7.32-3.34a61.07,61.07,0,0,1-8.19-5.08c-10.34-7.44-19.37-16.44-30.89-21.55-4.46-2.14-9-4.11-13.73-5.94-1.24,0-2.54.12-3.92.26a139.31,139.31,0,0,0-17.14,3c-6.23,1.44-12.87,3.35-19.69,5a126.86,126.86,0,0,1-16,3,62.78,62.78,0,0,1-15.26,0c11-2.39,20.89-6,30.57-9,4.83-1.49,9.58-2.82,14.2-3.81a98.84,98.84,0,0,1,13.19-2c1.43-.11,2.82-.18,4.18-.21-4.29-1.48-8.63-2.87-13-4.19-19.43-5.87-39.76-8.84-59.43-11.18l-3.69-.43c-1.25-.14-2.5-.3-3.74-.48-2.48-.36-4.92-.78-7.32-1.21-4.81-.86-9.5-1.75-14.13-2.33s-9.42-1.13-14-2.11A66.26,66.26,0,0,1,4969.79,655.55Z" transform="translate(-66.58 -56.46)"/><path class="cls-1" d="M4855.22,396c1.89-5.72,14.79-15.44,19.54-19.18,10.15-8,22.29-14.65,34.88-17.7,10-2.43,20.7-4.09,30.76-2.13l-1.37-1.13a129.81,129.81,0,0,1-10.55-9.61c-3.16-3.34-5.93-7-9.06-10.36-.07-.08-.15-.15-.23-.23-18.38-7.44-33.59-22.56-44.67-38.64-5.22-7.57-21.6-52.1-4-46.65,19.08,5.89,37.64,30.08,45.15,47.37A174.44,174.44,0,0,1,4925,325a88,88,0,0,1,8.32,9.05c5.81,6.76,12.65,12.48,19.56,18.09-1.58-3.34-3-6.61-4.31-9.31-7.05-14.43-8.58-29-7.54-44.77,1.61-24.43,15.25-40.37,30.95-57.92,6.85-7.65,11-11.15,16.89-.53,5.24,9.47,6.82,20.5,10,30.74,8.31,27.14,15.31,57.2-2.35,82.15-3.48,4.91-11.45,15.4-19.29,19.25a206.42,206.42,0,0,1,19.33,18.66c1,1.12,2,2.26,3,3.4a104.33,104.33,0,0,1,1.59-11.89c2.72-13.39,11.7-29.3,20.34-39.85,13.69-16.68,36.43-24.78,54.85-35.25,14.11,22.77-8.67,67.06-22.38,84.86-7.31,9.49-15.08,16.8-26.18,21.31a51.19,51.19,0,0,1-11.5,2.87A156.27,156.27,0,0,1,5027.34,436c3.15,6.92,5.9,14,8.36,21.21,1.62-10.8,6.35-21.62,11-30.25,4.77-8.86,19.52-34.1,31.73-34.64,17.26-.77-1.13,56-5,64.33-2.62,5.59-18.4,33.3-29.29,29.58.23,1,.48,1.94.71,2.91,1.12,4.71,2.26,9.42,3.73,14,.33,1,.69,2.08,1.07,3.11l.54,1.41c.11.27.22.54.32.81l0,.06c.85,1.92,1.74,3.82,2.71,5.68,4,7.7,9.16,14.76,14.31,21.75l3.85,5.24c1.82,2.5.5,6.67-2.11,8-3.06,1.62-6.11.56-8.05-2.11-5.15-7.06-10.51-14-15-21.49a97,97,0,0,1-10.81-25.77c-2.18-8.22-3.92-16.53-6.29-24.71a23,23,0,0,1-8.19,3.29c-19.74,4.46-45.48,3.6-64.45-3.72-10.08-3.89-41.61-14.93-34.8-28.68,7-14.16,33.77-20.26,47.26-21.53,12.24-1.15,29.64.06,42.8,6.46-1.38-2.49-2.83-4.95-4.35-7.36-2.41-3.8-5-7.51-7.67-11.12-.35-.48-.71-1-1.07-1.43l-.41-.54-.08-.1c-.66-.88-1.36-1.73-2-2.58-1.46-1.81-2.94-3.59-4.46-5.34q-6.45-7.46-13.59-14.26a24.39,24.39,0,0,1-3.92,17.09c-15.61,22.19-53.35,17.17-75.68,10.74-9.91-2.86-19.49-6.64-29.29-9.72C4862.36,404.27,4852.51,404.16,4855.22,396Z" transform="translate(-66.58 -56.46)"/><path class="cls-1" d="M5317.52,201.72c-29.56-14.15-66.22-16.33-87.06-45.55-11.81-16.56-15.39-37.36-22.14-55.91-4.4-12.09-13.84-23.18-15.29-36.26-.88-8-3.54-8,5.33-7.21,6.87.63,17.1,6.28,23.82,8.39,14.19,4.46,29.1,9,42.71,15.17,24,10.93,34,30.63,43.92,53.89,8.74,20.41,11.79,44.13,10.95,66.36" transform="translate(-66.58 -56.46)"/><path class="cls-1" d="M5520.6,452.06a35.22,35.22,0,0,0,6.1-3.66l-2.27,1.75a22.81,22.81,0,0,0,4.2-4.13l-1.75,2.27a18,18,0,0,0,2.21-3.8l-1.13,2.67a16.81,16.81,0,0,0,1.09-4l-.4,3a19.5,19.5,0,0,0,0-5.12l.4,3a27.34,27.34,0,0,0-1.82-6.44l1.13,2.67a43.83,43.83,0,0,0-5.76-9.61l1.75,2.26a65.71,65.71,0,0,0-11.7-11.57l2.27,1.75c-4-3-8.44-5.22-12.51-8.1-5.3-3.74-10.44-8.17-13.54-14a30,30,0,0,1-3.63-15.49,58.13,58.13,0,0,1,2.47-13.2,87.8,87.8,0,0,0,3.07-12.38l-.4,3a29.7,29.7,0,0,0,.08-7.71l.4,3a26.3,26.3,0,0,0-1.79-6.55l1.13,2.68a29.63,29.63,0,0,0-3.73-6.42l1.75,2.26a22.58,22.58,0,0,0-3.82-3.81l2.27,1.75a27.28,27.28,0,0,0-5.76-3.32l2.68,1.13a87.09,87.09,0,0,0-10.69-3.35,58.23,58.23,0,0,1-12.8-4.86,33.43,33.43,0,0,1-12.6-12.27c-3-5.21-4.18-11-4.5-17-.26-4.83.11-9.67-.49-14.49l.4,3a31.9,31.9,0,0,0-2.18-8.08l1.13,2.67a34.8,34.8,0,0,0-4.49-7.74l1.75,2.27a34.87,34.87,0,0,0-6.16-6.1l2.27,1.75c-6.55-5-14.37-7.9-21.85-11.22-8.36-3.7-16.66-8.43-22.59-15.54a54.33,54.33,0,0,1-10.39-19.29,11.19,11.19,0,1,1,21.58-6q.73,2.42,1.71,4.76l-1.12-2.67a39.68,39.68,0,0,0,4.92,8.51l-1.75-2.27a39.25,39.25,0,0,0,6.83,6.8l-2.27-1.75c8.1,6.23,17.95,9.24,27,13.7a58.15,58.15,0,0,1,14.35,9.81A46.14,46.14,0,0,1,5463,284.74a47.63,47.63,0,0,1,2.22,14.86,107.48,107.48,0,0,0,.39,11.91l-.4-3a24.53,24.53,0,0,0,1.62,6.07l-1.13-2.67a21.66,21.66,0,0,0,2.46,4.21l-1.75-2.27a23.69,23.69,0,0,0,4,4.1l-2.26-1.75a26.46,26.46,0,0,0,6,3.42l-2.68-1.12c5.17,2.13,10.71,3,16,4.93a39.81,39.81,0,0,1,9.82,4.76,36.52,36.52,0,0,1,9.65,9.94,38.25,38.25,0,0,1,6.07,19.15,50.46,50.46,0,0,1-2.17,15.52c-1.23,4.44-2.79,8.82-3.43,13.4l.4-3a23.46,23.46,0,0,0-.08,5.92l-.4-3a18.79,18.79,0,0,0,1.24,4.59l-1.13-2.68a21.42,21.42,0,0,0,2.74,4.61l-1.75-2.26a34.41,34.41,0,0,0,5.7,5.55l-2.27-1.75a86,86,0,0,0,8.68,5.59,78.75,78.75,0,0,1,8,5.69,66.59,66.59,0,0,1,11.23,11c4.24,5.37,7.81,10.9,9.9,17.49a32.76,32.76,0,0,1,1.5,9.52,26,26,0,0,1-1.52,9.17,30.62,30.62,0,0,1-7.1,11.21,39.92,39.92,0,0,1-10.68,7.41,11.92,11.92,0,0,1-8.62,1.13,11.19,11.19,0,0,1-7.82-13.76c.86-2.65,2.54-5.44,5.14-6.69Z" transform="translate(-66.58 -56.46)"/><path class="cls-1" d="M5351.3,134.42a7.33,7.33,0,0,1,11.78-1.75c12.19,12.6,27.5,40,1.36,39.21C5350.67,171.45,5345.61,145.8,5351.3,134.42Z" transform="translate(-66.58 -56.46)"/><path class="cls-1" d="M5255.23,1003.23c12.17,9.76,29.51,40.83.48,39.93C5237.87,1042.61,5239.4,1002.58,5255.23,1003.23Z" transform="translate(-66.58 -56.46)"/><path class="cls-1" d="M5164.77,1045.47a2.53,2.53,0,0,1-.26-.31l.2.22Z" transform="translate(-66.58 -56.46)"/><path class="cls-1" d="M5163.5,1044.25c-.59-.4-.61-.45-.47-.36l.34.24Z" transform="translate(-66.58 -56.46)"/><path class="cls-1" d="M4902.89,788.42a39.94,39.94,0,0,1,12.76-.09c-1.52-2.59-2.95-5.23-4.24-8-.84-1.76-1.63-3.55-2.41-5.34-6.59-1.75-14.09-6.93-15.88-8.27-7.49-5.61-11.06-14.43-8.1-27,.84-3.6,1.19-8.17,5.56-11.49s10.05-3.15,13.52-3.17c9.57-.06,18.45,4.88,19.2,14.22.71,8.89-2.08,19.14-4.24,28.91a146.5,146.5,0,0,0,7.09,14.32c.47.81,1,1.6,1.46,2.4a44.56,44.56,0,0,1,7.49-14.46c2.46-3.3,5-7.8,10.08-9.33s9.39,1,12.1,2.45c7.48,4,11.91,12.7,7.81,22.5-4.21,10.06-12.38,20-19.32,29.7q1.06,2.13,2.1,4.28c1.29,2.66,2.54,5.34,3.78,8a52.22,52.22,0,0,1,7.45-14.72c2.67-3.79,5.41-9,11-10.59,5.48-1.58,10.54,1.52,13.61,3.3a21.31,21.31,0,0,1,9.33,26.65c-4.72,12.37-14.43,24.44-22.21,36.2q5,9.38,10.63,18.35c-.87-10.83,2.46-22.77,11.42-35.49,3.4-4.81,6.89-11.4,14.05-13.47,7-2,13.41,1.93,17.31,4.19,10.79,6.24,17.39,19.47,11.87,33.91-6,15.71-18.32,31-28.2,46,.8.92,1.61,1.84,2.43,2.75,8.9,9.89,18.38,19.25,28.19,28.24q7.34,6.72,15.21,12.84l.14.11.22.17.79.6c.66.5,1.32,1,2,1.49l.34.25c-5.35-7.19-9.55-14-11-16.51-11.19-19.07-14.11-41.6-3.92-66.51,2.92-7.12,5.31-16.8,14.42-20.1,8.86-3.22,19.17,2.2,25.37,5.3,17.12,8.54,31.05,27.39,28.73,48.52-2.57,23.52-14.44,46.77-22.61,69.3q7.88,4.47,16,8.56c11,5.56,22.3,10.41,33.1,16.32a200.72,200.72,0,0,1-13.94-20.29c-11.19-19.08-14.11-41.6-3.91-66.51,2.91-7.12,5.31-16.8,14.41-20.1,8.87-3.22,19.17,2.2,25.37,5.29,17.13,8.55,31.05,27.39,28.74,48.53-2.61,23.76-14.69,47.25-22.87,70l-.19.13a61.23,61.23,0,0,1,5.22,3.53c1.91,1.45,4.13,3.11,5.15,5.36,1.29,2.85.91,6.59-2.15,8.21-2.63,1.38-6.83.9-8.21-2.16,0-.08-.08-.16-.13-.24.12.12.25.27.45.46-.18-.17-.34-.36-.51-.55s-.29-.34-.2-.22l-.12-.12c-.28-.28-.59-.53-.89-.79l.31.21a4.59,4.59,0,0,1-.44-.33l0,0a2.09,2.09,0,0,0-.3-.21l0,0c-1.24-.89-2.52-1.71-3.81-2.51-22.35,14.44-44.19,32-69.68,42.43-23,9.44-49.22,5.52-65-4.61-5.72-3.66-15.56-9.65-15.15-17.66.43-8.22,10.46-13.57,17.42-18.4a117.57,117.57,0,0,1,76.3-21,289.22,289.22,0,0,1,32,4.16q-5.1-3-10.37-5.68c-6.29-3.23-12.78-6-19.15-9.13q-5.57-2.68-11.05-5.55c-24.41,9.82-49.2,23.09-75.38,28.09-23.37,4.46-46-5.67-57.55-19.81-4.16-5.11-11.41-13.59-8.82-21.78,2.65-8.42,13.2-11.64,20.83-15,23.63-10.49,46.34-11.69,66.93-6.48-1.17-1-2.32-1.91-3.47-2.89-5.3-4.5-10.45-9.2-15.46-14l-1,1c-19.36,3.6-39.74,10-59.34,9.37-17.44-.53-31.3-12.7-36.45-26.12-1.86-4.86-5.19-13-1.64-19.11,3.65-6.31,11.77-7,17.87-8.43,17.7-4,33.1-1.58,46,5.18-1.6-2.05-3.18-4.12-4.72-6.21q-5.82-7.86-11.09-16.13c-16.06.55-33.33,3.28-48.87.08-14-2.87-23.13-15.52-25.08-28.09-.7-4.55-2.05-12.18,1.82-17.12s10.65-4.6,15.79-5c14.37-1.07,26.05,2.86,35.2,10.08-2.6-5.69-5.14-11.41-7.75-17.09-2.48-5.41-5-10.79-7.71-16.09-10.75,1.46-22.18,3.77-32,2.62s-15-9.38-15-18c0-3.12-.1-8.35,3.28-12S4899.12,789,4902.89,788.42Z" transform="translate(-66.58 -56.46)"/><path class="cls-1" d="M5385,903.42c6,10.11,23.84,36,38.55,22.39l1.29-.48c9.39-22,23.29-43.28,34.18-64.84,20.4-40.4,46.43-74.26,54.22-120.3,5.07-30,3.42-62,5.71-92.31,1.06-14-3.33-26.52-7.46-39.74-2.85-9.12-3.12-22.69-7.37-30.57-9.48,3.33-18.49,18.29-24.6,26.15-13.21,17-24.55,36.07-36.28,54.12-17.52,27-38.06,53.21-52.78,81.94C5362.23,794.8,5352.64,848.88,5385,903.42Zm23.53-24.56c.67-5.92,1.63-12.58,2.79-19.81s2.49-15,3.72-23.29c.33-2.07.57-4.14.93-6.29s.7-4.31,1.05-6.5.8-4.39,1.26-6.61.89-4.47,1.41-6.72c1.14-4.47,2.16-9.06,3.55-13.6.67-2.28,1.28-4.59,2-6.88l2.24-6.88c3.12-9.18,6.58-18.41,10.46-27.45,11.88-28.11,26.43-54.93,38.73-77.92-11.78,28.06-24.94,55.49-35.4,81.84-5.25,13.16-9.85,26-13.52,38.47a308.24,308.24,0,0,0-8.31,35.52c-2,11.28-4.21,21.47-6,30.54s-3.3,17-4.22,23.57-.89,11.89-.1,15.48a18.75,18.75,0,0,0,1.34,4l.74,1.3-.54-.8a6.61,6.61,0,0,1-.59-1c-.11-.2-.22-.43-.35-.67s-.21-.5-.32-.78a29.34,29.34,0,0,1-1.82-10A107.91,107.91,0,0,1,5408.51,878.86Z" transform="translate(-66.58 -56.46)"/><path class="cls-1" d="M5290.8,852.81c37.48,15.11,92.16,110.83,17.76,108.62C5250.62,959.7,5204.49,850.85,5290.8,852.81Z" transform="translate(-66.58 -56.46)"/><path class="cls-1" d="M4983.31,567.48c-27.68-17.56-49-47.49-84.79-49.66-20.3-1.23-39.83,6.76-59.14,10.87-12.59,2.68-27,.56-38.85,6.27-7.21,3.47-8.68,1.25-3.28,8.34,4.17,5.48,14.38,11.16,19.73,15.75,11.31,9.66,23.05,19.9,35.51,28.16,22,14.56,44,12.56,69,8.67,21.94-3.41,43.67-13.41,62.07-25.91" transform="translate(-66.58 -56.46)"/></svg>