<?xml version="1.0" encoding="utf-8"?>
<!-- Generator: Adobe Illustrator 25.2.3, SVG Export Plug-In . SVG Version: 6.00 Build 0)  -->
<svg version="1.1" id="Calque_1" xmlns="http://www.w3.org/2000/svg" xmlns:xlink="http://www.w3.org/1999/xlink" x="0px" y="0px"
	 viewBox="0 0 768 1366" style="enable-background:new 0 0 768 1366;" xml:space="preserve">
<style type="text/css">
	
</style>
<path class="st0" d="M280.59,1033.09c0.95,0.34,1.9,0.68,2.88,0.96C279.69,1031.5,281.13,1032.94,280.59,1033.09"/>
<path class="st0" d="M439.94,1073.92c0.16,0,0.34,0.01,0.52,0.01C442.8,1073.29,441.76,1073.47,439.94,1073.92"/>
<path class="st0" d="M280.06,1032.9l0.22,0.16c0.15,0.05,0.25,0.05,0.31,0.02L280.06,1032.9z"/>
<path class="st1" d="M251.01,821.3c-11.29-4.11-22.58-8.23-33.88-12.36c-8.87-3.23-20.84-5.55-26.04,2.34
	c-4.25,6.45,0.1,15.78,6.97,19.35c6.87,3.55,15.11,2.85,22.73,1.59c12.69-2.1,25.14-5.56,37.1-10.29"/>
<path class="st2" d="M503.47,851.04c-0.17-1.09-0.86-2.06-1.85-2.57c-0.53-0.27-1.11-0.39-1.69-0.37c-0.87-1.02-2.08-1.83-3.72-2.27
	c-88.31-23.18-183.26-13.22-272.64-2.12c-3.24,0.4-5.35,2.42-6.4,4.86c-0.02,0.01-0.04,0.01-0.05,0.02
	c-1.18,0.53-1.96,1.65-2.06,2.94c-2.88,40.75,20.41,100.82,69.23,131.89c22.94,14.59,49.93,21.85,76.84,21.85
	c28.69,0,57.29-8.26,80.72-24.7C484.35,950.72,510.27,896.25,503.47,851.04z M480.95,857.63c-6.26,3.24-12.66,6.38-19.21,9.02
	c-10.84,4.36-22.79,6.97-34.07,9.14c-35.8,6.88-73.37,7.93-114.86,3.23c-25.47-2.89-54.06-7.26-79.13-21.48
	C314.85,847.6,400.6,839.25,480.95,857.63z"/>
<path class="st1" d="M212.61,670.45l84.77,192.03l0.2,0.5c0.14,0.32,0.54,0.46,0.89,0.31l0.1-0.04c0.36-0.15,0.54-0.53,0.4-0.85
	l-0.37-0.9c-0.01-0.02-0.02-0.04-0.04-0.06l-72.14-179.94l78.51,177.81l0.21,0.5c0.13,0.32,0.54,0.46,0.89,0.31l0.1-0.04
	c0.36-0.15,0.54-0.53,0.4-0.85l-0.37-0.9c-0.01-0.02-0.03-0.05-0.04-0.06L227.97,664L212.61,670.45z"/>
<polygon class="st1" points="350.81,786.25 327.26,798.52 312.45,845.54 322.57,864.97 346.05,852.74 360.9,805.62 "/>
<polygon class="st1" points="349.13,851.14 377.03,836.6 362.5,808.7 "/>
<polygon class="st1" points="296.35,814.62 310.84,842.46 324.18,800.12 "/>
<polygon class="st1" points="349.13,851.14 377.03,836.6 362.35,808.4 362.5,808.7 "/>
<polygon class="st1" points="360.9,805.62 350.81,786.25 326.97,798.67 327.26,798.52 312.45,845.54 322.57,864.97 346.05,852.74 
	"/>
<polygon class="st1" points="324.19,800.12 296.35,814.62 310.85,842.46 "/>
<path class="st3" d="M312.7,778.16c0,5.03,5.58,17.38-2.3,17.38c-7.88,0-14.28-7.78-14.28-17.38c0-9.6,6.4-17.38,14.28-17.38
	C318.28,760.78,312.7,773.13,312.7,778.16"/>
<path class="st3" d="M246.71,777.47c0,8.36-6.78,15.14-15.14,15.14c-8.36,0-15.14-6.78-15.14-15.14c0-8.36,6.78-15.14,15.14-15.14
	C239.94,762.33,246.71,769.11,246.71,777.47"/>
<path class="st3" d="M255.91,699.61c-0.47-0.73-2.75-4.57-1.18-8.19c0.77-1.77,2.34-3.2,4.42-4.01c2.23-0.87,4.43-1.14,6.21-1.35
	c0.69-0.08,1.65-0.2,2.21-0.33c0.06-0.68-0.18-1.72-0.39-2.66c-0.49-2.2-1.11-4.94,0.77-7.52c1.19-1.64,3.11-2.8,5.72-3.46
	c5.66-1.42,7.65-2.78,7.67-2.8c-0.08,0.06-0.11,0.09-0.11,0.09l4.53,4.63c-0.69,0.56-3.54,2.54-10.92,4.38
	c-0.42,0.11-0.67,0.2-0.82,0.27c-0.04,0.54,0.21,1.67,0.37,2.38c0.36,1.61,0.77,3.43,0.36,5.36c-0.49,2.3-2.05,4.1-4.38,5.09
	c-1.58,0.67-3.28,0.87-4.91,1.07c-1.37,0.16-2.78,0.33-3.94,0.76c-0.01,0.59,0.38,1.74,0.87,2.52l-0.01-0.01L255.91,699.61z"/>
<path class="st1" d="M336.4,759.47c-5.09-3.45-11.46-8.51-14.97-14.15c-6.31-10.14-4.8-23.35-4.78-23.48l-2.23-0.27l-2.23-0.27
	c-0.08,0.6-1.74,14.88,5.43,26.4c7.07,11.37,23.67,20.06,24.37,20.42l0.05-0.1C341,764.69,338.49,762.17,336.4,759.47"/>
<path class="st1" d="M277.92,714.59c-0.91,0.18-1.85,0.41-2.58,0.98c-0.64,0.5-1.07,1.23-1.39,1.98c-2.1,4.93,1.1,11.36,6.29,12.67
	c2.77,0.7,5.67,0.09,8.46-0.51c5.77-1.25,11.55-2.49,17.32-3.74c1.33-0.29,2.78-0.57,4.03,0c0.76,0.34,1.37,0.97,2.16,1.26
	c0.69,0.25,1.46,0.21,2.19,0.09c4.51-0.7,8.35-3.92,10.73-7.83c2.38-3.9,3.49-8.44,4.25-12.94c0.73-4.29,0.57-9.81-3.4-11.59
	c-2.04-0.91-4.51-0.39-6.35,0.89c-1.82,1.29-3.08,3.23-4.03,5.26c-2.05,4.4-2.28,8.82-3.02,13.5c-0.93,5.84-1.8,6.38-7.02,3.95
	C296.84,714.5,287.48,712.68,277.92,714.59"/>
<path class="st3" d="M517.06,773.44c4.37,2.12,8.86,4.03,13.09,6.4c4.65,2.61,5.37,4.81,4.09,9.77
	c-1.73,6.67-5.59,12.12-10.28,16.87c-7.57,7.69-16.55,13.33-26.91,16.58c-16.14,5.07-32.49,7.61-49.38,4.27
	c-9.97-1.96-18.92-6.5-28.02-10.67c-1.6-0.72-1.98-2.16-1.32-3.81c0.12-0.28,0.23-0.55,0.39-0.82c4.3-7.43,4.32-15,0.58-22.62
	c-1.14-2.33-0.53-3.91,1.29-5.56c4.34-3.95,9.59-6.6,14.77-8.87c15.73-6.89,32.26-10.65,49.59-9.7c5.44,0.29,11.03,0.17,16.26,1.42
	c5.54,1.32,10.74,4.06,16.1,6.19C517.24,773.07,517.14,773.26,517.06,773.44"/>
<path class="st3" d="M405.89,780.72c-5.18-15.46-2.43-30.23,2.48-44.87c13.91-27.78,33.5-49.18,64.66-57.6
	c9.45-2.56,12.86-0.8,15.06,8.78c3.23,14.06,3.95,28.25,1.7,42.56c-1.37,8.68-5.3,16.07-10.76,22.82c-2.04,2.53-4.3,3.81-7.71,3.99
	c-5.15,0.26-10.43,0.69-15.32,2.14c-9.2,2.74-19.68,5.61-29.53,11.27c-4.24,2.43-8.34,5.05-11.63,8.72
	C412.27,781.37,409.22,781.61,405.89,780.72"/>
<path class="st3" d="M358.79,690.88c1.45-4.65,3.44-8.06,5.59-11.38c1.44-2.23,3.41-3.28,6.15-2.97c3.96,0.45,7.8,1.15,11.16,3.52
	c7.84,5.57,16.37,10.04,22.9,17.57c3.76,4.34,5.24,9.35,7.3,14.26c0.38,0.91-0.17,2.37-0.66,3.42c-0.75,1.64-1.66,3.25-2.77,4.69
	c-6.09,7.86-8.44,17.29-11.22,26.54c-2.74,9.15-2.68,18.49-1.61,27.88c0.1,0.9,0.35,1.8,0.34,2.7c-0.03,1.35-0.95,2.54-2.16,2.49
	c-5.95-0.26-9.31,3.73-12.86,7.46c-1.04,1.1-1.85,2.43-2.97,3.42c-1.28,1.13-2.82,1-4.16-0.02c-0.71-0.53-1.4-1.19-1.88-1.94
	c-8.57-13.63-16.81-27.33-19.86-43.6c-3.12-16.56-2.65-32.58,4.31-48.13C357.37,694.59,358.22,692.31,358.79,690.88"/>
<path class="st1" d="M389.74,814.52c-4.58-2.53-8.17-6.53-10.01-11.93c-0.47-1.36-0.62-3.07-0.25-4.45
	c2.27-8.4,11.75-14.06,20.07-11.69c7.99,2.29,13.27,11.21,9.39,19.43c-3,6.35-8.29,8.41-14.38,9.7
	C392.95,815.93,391.56,815.32,389.74,814.52"/>
</svg>
