<svg id="Calque_1" data-name="Calque 1" xmlns="http://www.w3.org/2000/svg" viewBox="0 0 595.28 471.09"><defs><style>.cls-1{fill:#fff;}</style></defs><path class="cls-1" d="M266.25,305.05c-6.89-8.76-27-38-20.91-73-33.64,12.61-41-10.51-41-10.51s14.72-14.72,43.1,0c0,0,7.58-23.31,25.76-24.41,5,18.18-4.41,25.34-19.83,34.15-4.1,11.37,3.7,55.91,21.16,66.41,6.9,4.75,5.64,11.6-.91,11.33A10,10,0,0,1,266.25,305.05Z"/><path class="cls-1" d="M301.09,185.24c-2.15-7.79-7.27-12.46-11.3-11.75a7.84,7.84,0,0,0-4.58,12.88,6.83,6.83,0,0,1,1.72,5.86,7.77,7.77,0,0,0,.54,4.85,7.89,7.89,0,0,0,8.29,4.51C300.5,200.86,303.39,193.56,301.09,185.24Z"/><path class="cls-1" d="M312.88,194.84c4.66,6.59,11.05,9.26,14.61,7.23a7.86,7.86,0,0,0-.05-13.68,6.79,6.79,0,0,1-3.6-4.92,7.83,7.83,0,0,0-11.47-5.82C308.15,179.93,307.9,187.78,312.88,194.84Z"/><path class="cls-1" d="M299.62,207.57c-6.24,5.12-8.44,11.68-6.15,15.08a7.83,7.83,0,0,0,13.63-1,6.81,6.81,0,0,1,4.65-3.94,7.79,7.79,0,0,0,4.22-2.46,7.88,7.88,0,0,0,.76-9.41C314.15,201.78,306.3,202.09,299.62,207.57Z"/><path class="cls-1" d="M291.32,258.34a61.66,61.66,0,0,1,43.8-23.25,10.83,10.83,0,0,1,11.59,12.41c-2.11,14.63-9.86,28.9-14.64,36.59a10.69,10.69,0,0,1-11.3,4.84A54.64,54.64,0,0,1,292,272.3,10.79,10.79,0,0,1,291.32,258.34Z"/></svg>