<svg id="Calque_1" data-name="Calque 1" xmlns="http://www.w3.org/2000/svg" viewBox="0 0 595.28 471.09"><defs><style>.cls-1{fill:#fff;}</style></defs><path class="cls-1" d="M257.15,209.28c7.73,0,14-2.05,14-4.58s-6.27-4.58-14-4.58-14,2-14,4.58S249.41,209.28,257.15,209.28Z"/><path class="cls-1" d="M303.08,219.64c1.87-1.7-.83-7.72-6-13.44s-10.94-9-12.81-7.29.83,7.72,6,13.45S301.21,221.34,303.08,219.64Z"/><path class="cls-1" d="M263,183.88c6.7,3.87,13.15,5.23,14.42,3s-3.14-7.1-9.84-11-13.16-5.23-14.42-3S256.33,180,263,183.88Z"/><path class="cls-1" d="M230.39,224c2.47-.55,3.09-7.12,1.39-14.67s-5.08-13.21-7.54-12.66-3.09,7.13-1.4,14.67S227.92,224.52,230.39,224Z"/><path class="cls-1" d="M281.33,239.93c-3.7,0-7.35-.11-11-.28a38.74,38.74,0,0,0,5.59-3.43c6.24-4.56,10.09-9.92,8.6-12s-7.76,0-14,4.57c-4.94,3.61-8.37,7.72-8.85,10.29-31.07-2.52-59.08-10.91-80.91-23.29a89.91,89.91,0,0,0-.56,9.76,88.25,88.25,0,0,0,176.49,1.74C334.65,235.32,308.88,239.93,281.33,239.93Z"/></svg>