<svg id="Calque_1" data-name="Calque 1" xmlns="http://www.w3.org/2000/svg" viewBox="0 0 595.28 471.09"><defs><style>.cls-1{fill:#fff;}</style></defs><path class="cls-1" d="M408.46,228.32a7.83,7.83,0,0,0-9.45-5.84L264.3,254.24a43.77,43.77,0,0,0-4.09-15.63,44.32,44.32,0,0,0-3.72-6.31,67,67,0,0,1-14.38,17.24,4.48,4.48,0,0,0,.24-1.37,4.56,4.56,0,1,0-4.56,4.55c.14,0,.28,0,.42,0a78.81,78.81,0,0,1-6.59,4.42,4.54,4.54,0,0,0-7.5,3.45,3.75,3.75,0,0,0,0,.47c-1.55.71-3.11,1.37-4.67,2a4.2,4.2,0,0,0,.07-.62,4.56,4.56,0,1,0-7.86,3.13,73.43,73.43,0,0,1-9.28,1.82c0-.13,0-.26,0-.39a4.56,4.56,0,1,0-9.12,0,4.35,4.35,0,0,0,.11,1,62,62,0,0,1-16.25-2.16,44,44,0,0,0,85.12,5.14l140.29-33.08A7.86,7.86,0,0,0,408.46,228.32Z"/><circle class="cls-1" cx="193.35" cy="208.92" r="4.56"/><circle class="cls-1" cx="193.35" cy="251.44" r="4.56"/><circle class="cls-1" cx="225.4" cy="239.05" r="4.56"/><circle class="cls-1" cx="213.5" cy="209.18" r="4.56"/><circle class="cls-1" cx="219.57" cy="250.71" r="4.56"/><path class="cls-1" d="M238.39,238a4.56,4.56,0,1,0-4.55-4.56A4.56,4.56,0,0,0,238.39,238Z"/><circle class="cls-1" cx="203.78" cy="234.5" r="4.56"/><path class="cls-1" d="M211.73,229.94a4.56,4.56,0,1,0,4.55-4.55A4.56,4.56,0,0,0,211.73,229.94Z"/><circle class="cls-1" cx="208.34" cy="246.88" r="4.56"/></svg>