<svg width="36" height="36" viewBox="0 0 36 36" fill="none" xmlns="http://www.w3.org/2000/svg">
<path d="M26.6598 10.9454H26.6592C25.8271 10.9454 25.1771 10.2938 25.1771 9.51154C25.1771 8.72932 25.8271 8.07765 26.6592 8.07765C27.4913 8.07765 28.1413 8.72932 28.1413 9.51154V9.51218C28.1416 9.69873 28.1041 9.88379 28.0308 10.0569C27.9574 10.23 27.8494 10.3881 27.7123 10.5218C27.5753 10.6556 27.4118 10.7623 27.2311 10.8352C27.0503 10.9081 26.8562 10.9457 26.6598 10.9454ZM17.8246 12.2495C14.5229 12.2495 11.8087 14.8802 11.8087 18.1313C11.8087 21.3824 14.5229 24.0131 17.8246 24.0131C21.1264 24.0131 23.8406 21.3824 23.8406 18.1313C23.8406 14.8802 21.1264 12.2495 17.8246 12.2495ZM34.8683 18.1313C34.8683 17.86 34.8686 17.5887 34.8689 17.3172C34.8712 15.3666 34.8734 13.4109 34.76 11.4428C34.6283 8.79408 34.0028 6.35692 31.9409 4.34518C29.8769 2.33143 27.3895 1.7278 24.6819 1.59962C22.6622 1.48901 20.6584 1.49121 18.6616 1.49339C18.3838 1.4937 18.1062 1.494 17.8288 1.494C17.5507 1.494 17.2726 1.49369 16.9944 1.49339C14.9949 1.49121 12.9917 1.48902 10.9756 1.59962C8.26778 1.72781 5.77632 2.33557 3.71661 4.34518C1.65045 6.36108 1.02923 8.79436 0.897496 11.4429C0.784081 13.4146 0.786331 15.3707 0.788572 17.3188C0.788883 17.5898 0.789195 17.8606 0.789195 18.1313C0.789195 18.4019 0.788883 18.6728 0.788572 18.9438C0.786331 20.8926 0.784079 22.8515 0.897497 24.8197C1.02925 27.4684 1.6547 29.9056 3.71661 31.9174C5.78054 33.9311 8.26795 34.5347 10.9755 34.6629C12.9953 34.7735 14.9991 34.7713 16.9959 34.7692C17.2737 34.7689 17.5513 34.7686 17.8288 34.7686C18.1068 34.7686 18.3849 34.7689 18.6631 34.7692C20.6625 34.7713 22.6658 34.7735 24.6819 34.6629C27.3897 34.5347 29.8812 33.927 31.9409 31.9174C34.007 29.9015 34.6282 27.4683 34.76 24.8199C34.8752 22.8834 34.8722 20.9587 34.8692 19.0403C34.8688 18.7371 34.8683 18.4341 34.8683 18.1313ZM17.8246 25.9119C13.3925 25.9119 9.83759 22.426 9.83759 18.1313C9.83759 13.8366 13.3925 10.3507 17.8246 10.3507C22.2568 10.3507 25.8116 13.8366 25.8116 18.1313C25.8116 22.426 22.2568 25.9119 17.8246 25.9119Z" fill="#F8B04C" stroke="black"/>
</svg>
